<svg xmlns="http://www.w3.org/2000/svg" xmlns:xlink="http://www.w3.org/1999/xlink" preserveAspectRatio="none" version="1.1" viewBox="0 0 1440 560">
  <g fill="rgba(0, 0, 0, 0.1)" mask="url(&quot;#a&quot;)">
    <path d="M732.042 63.615 641.49 2.536 580.41 93.09l90.554 61.079z" style="animation:float2 4s infinite"/>
    <path d="M1421.468 341.435c24.254 1.052 51.164-3.728 63.277-24.767 12.096-21.01 2.523-46.551-10.413-67.054-11.904-18.867-30.555-33.137-52.864-33.236-22.469-.1-42.529 13.257-53.684 32.762-11.073 19.361-11.967 43.144-.753 62.424 11.154 19.176 32.274 28.91 54.437 29.871" style="animation:float1 5s infinite"/>
    <path d="M772.388 274.508c58.141 2.159 117.845-22.726 144.964-74.2 25.781-48.935 2.895-105.2-25.413-152.718-27.43-46.045-66.003-88.352-119.551-90.626-57.042-2.422-111.156 29.566-138.533 79.667-26.375 48.269-16.59 106.028 11.091 153.56 27.474 47.176 72.887 82.291 127.442 84.317m-700.578-60.5 143.027-119.78-152.25-58.444zm143.935 305.756-31.733-137.449-137.45 31.733 31.733 137.449z" style="animation:float3 6s infinite"/>
    <path d="M343.997 139.874c23.37-.134 44.593-13.165 56.223-33.436 11.574-20.174 11.851-44.908.31-65.1-11.629-20.346-33.1-32.997-56.533-33.269-23.92-.278-46.867 11.226-58.856 31.927-12.016 20.747-10.666 46.437 1.506 67.092 11.982 20.333 33.749 32.921 57.35 32.786" style="animation:float2 4s infinite"/>
  </g>
  <defs>
    <mask id="a">
      <path fill="#fff" d="M0 0h1440v560H0z"/>
    </mask>
  </defs>
</svg>
