<svg data-name="Layer 1" xmlns="http://www.w3.org/2000/svg" viewBox="0 0 781.31 336.87">
  <path d="M388.95 23.5c-5 0-10.04.07-15.08.14-47.81.69-95.48 5.38-142.5 14.05-35.83 6.88-71.34 16.32-105.18 30.08-25.86 10.75-51.15 23.87-72.16 42.57-13.41 12.13-25.12 27.21-29.09 45.16-3.62 15.29-.21 31.68 7.7 45.16 10.82 18.34 27.6 32.25 45.23 43.63 15.72 10.07 32.53 18.2 49.74 25.19 32.92 13.3 67.33 22.46 102.17 29.27a840.37 840.37 0 00119.83 13.73c41.65 1.77 83.37.92 124.87-2.91 37.25-3.35 74.21-9.44 110.58-18.2 30.93-7.66 61.44-17.56 90.11-31.36 19.97-9.72 39.38-21.36 55.48-36.82 10.07-9.83 18.87-21.28 23.63-34.59 4.29-11.81 4.72-25.12 1.06-37.18-3.9-13.13-11.88-24.62-21.28-34.41a180.057 180.057 0 00-39.16-29.8c-25.54-14.76-53.28-25.51-81.49-34.06a691.597 691.597 0 00-119.05-23.77A900.297 900.297 0 00389 23.49h-.04z" fill="#000" stroke="#000" stroke-miterlimit="10" stroke-width="47"/>
  <path d="M388.67 23.5c-5 0-10.04.07-15.08.14-47.81.69-95.48 5.38-142.5 14.05-35.83 6.88-71.34 16.32-105.18 30.08-25.86 10.75-51.15 23.87-72.16 42.57-13.41 12.13-25.12 27.21-29.09 45.16-3.62 15.29-.21 31.68 7.7 45.16 10.82 18.34 27.6 32.25 45.23 43.63 15.72 10.07 32.53 18.2 49.74 25.19 32.92 13.3 67.33 22.46 102.17 29.27a840.37 840.37 0 00119.83 13.73c41.65 1.77 83.37.92 124.87-2.91 37.25-3.35 74.21-9.44 110.58-18.2 30.93-7.66 61.44-17.56 90.11-31.36 19.97-9.72 39.38-21.36 55.48-36.82 10.07-9.83 18.87-21.28 23.63-34.59 4.29-11.81 4.72-25.12 1.06-37.18-3.9-13.13-11.88-24.62-21.28-34.41a180.057 180.057 0 00-39.16-29.8c-25.54-14.76-53.28-25.51-81.49-34.06a691.597 691.597 0 00-119.05-23.77 900.297 900.297 0 00-105.36-5.89h-.04zM228.11 84.45v71.91c0 4.97.85 10.64 5.07 13.91 4.68 3.48 10.89 2.91 16.39 2.91 5.14 0 11.32-1.06 14.05-6.1 3.51-6.74 2.84-14.54 3.09-21.85h22.21c-.07 6.74.18 13.48-.25 20.22-.6 2.84 2.06 4.97 4.26 6.21 4.19 1.74 8.88 1.83 13.13.25 4.04-2.31 5.14-7.38 5.89-11.64.67-4.97.74-10.04.74-15.11h22.21c-.07 7.31.18 14.62-.25 21.92-.35 1.17.64 1.92 1.42 2.59 3.72 3.41 9.47 4.08 14.19 2.91 3.58-1.17 4.33-5.5 4.93-8.73.99-7.24 1.06-14.54.99-21.85h22.28c-.18 5.89-.07 11.78-.07 17.7.07 3.72.5 8.05 3.48 10.71 3.26 2.59 7.59 2.77 11.56 2.84 5.57-.07 11.39.25 16.64-1.99a4.5 4.5 0 002.84-4.93c-.77-10.87-1.92-21.71-3.44-32.49 8.23-1.31 16.46-2.73 24.73-4.08 1.42 12.13 3.19 24.3 3.16 36.57 0 10.5-3.33 21.46-11.07 28.77-7.41 7.09-17.88 9.83-27.85 10.07-7.09.07-14.54.32-21.21-2.73a21.92 21.92 0 01-10.39-9.58c-4.4 6.81-11.71 12.24-20.04 12.31-9.15.25-18.94-3.72-24.19-11.46a23.14 23.14 0 01-10.47 9.29c-6.81 2.48-14.3 2.84-21.36 1.24-6.39-1.42-11.35-6.14-15.08-11.21a28.998 28.998 0 01-22.77 11.96c-8.48.43-18.38 1.17-24.94-5.39a43.93 43.93 0 01-9.97 32.42c-11.07 12.88-28.27 19.05-44.91 19.87-13.62.6-28.66-1.24-39.48-10.39-9.22-7.8-12.98-20.22-13.05-31.93.25-16.46 4.9-32.57 10.71-47.89 6.56 2.09 13.23 3.83 19.79 5.92-2.91 11.88-5.89 23.84-5.75 36.18 0 5.33 2.95 10.21 7.66 12.7 7.66 4.08 16.64 3.9 25.01 3.3 7.73-.82 15.82-2.48 22.31-7.06 2.55-1.81 5.14-4.65 4.9-8.05l-2.48-117.56c8.48-.85 17.03-1.6 25.44-2.66h-.04zm247.05.18v119.91l-23.06 1.56c-.64-39.66-1.56-79.32-2.41-118.98l25.47-2.48zm146.97.07v119.8c-7.63.6-15.36 1.06-23.02 1.67-.74-39.66-1.57-79.32-2.48-118.98 8.55-.99 17.03-1.67 25.54-2.48h-.04zm-204.34 1.67l2.31.07c5.14 4.58 9.83 9.9 14.97 14.62-.07 1.06.25 2.41-.74 3.19-4.4 4.36-8.83 8.87-13.3 13.27-.74 1.06-2.09.74-3.26.85-4.54-4.75-9.29-9.33-13.87-13.98-1.31-.92-1.31-3.09-.18-4.08 4.65-4.65 9.4-9.29 14.05-13.98l.04.04zm163.44 43.56c1.49 12.13 3.33 24.26 3.26 36.57-.07 11.56-4.19 23.77-13.66 30.93-9.72 7.41-22.53 8.48-34.34 7.73-4.66-.32-9.04-2.34-12.31-5.68-.82 12.17-4.61 24.62-13.3 33.52-10.78 11.25-27 15.79-42.14 15.54-2.06-8.87-3.72-17.88-5.82-26.75 9.47-2.34 19.16-4.82 27.6-9.83 4.08-2.41 8.16-5.89 9.22-10.82.35-5.21-.71-10.47-1.24-15.72-1.67-12.06-3.72-24.02-6.03-35.97 8.19-2.16 16.42-4.43 24.66-6.6 1.49 6.74 2.84 13.66 5.32 20.15 1.49 3.9 3.9 7.98 8.16 9.22 4.9 1.31 9.97.99 14.97.99 3.92.14 7.82-.53 11.46-1.99 1.84-.74 3.19-2.77 2.77-4.82-.73-10.88-1.88-21.73-3.44-32.53 8.23-1.42 16.46-2.73 24.87-3.97zm-35.41 87.55c.92 0 1.77 0 2.41.18 4.47 4.72 9.29 9.22 13.8 13.98 4.26-4.51 8.66-8.73 12.95-13.13.78-1.1 2.16-.85 3.33-1.03l14.23 14.23c-.18.92.18 2.09-.67 2.84l-13.37 13.37-2.41.07c-4.65-4.65-9.4-9.33-13.98-14.05-4.33 4.47-8.8 8.87-13.23 13.3-.71.99-2.06.57-3.16.74-4.33-4.4-8.73-8.73-13.05-13.05-1.24-.92-1.42-3.09-.25-4.08l13.41-13.37z" fill="#ffc403"/>
</svg>
