<svg data-name="Layer 1" xmlns="http://www.w3.org/2000/svg" viewBox="0 0 649.38 747.42">
  <path d="M5.98 734.34v-13.02h30.05c34.26 0 35.94-.37 39.71-8.03 1.87-3.86 1.93-4.67.53-8.56-2.87-8.1-4.86-8.78-27.87-9.44-19-.5-20.59-.72-26.41-3.43A42.112 42.112 0 012.9 672.77C.41 667.48 0 665.2 0 656.33s.4-11.15 2.9-16.47c3.71-7.88 11.21-15.42 19.09-19.09l6.2-2.9 34.38-.31 34.38-.34v26.1H66.9c-34.26 0-35.97.37-39.71 8.03-1.87 3.86-1.93 4.67-.56 8.56 2.87 8.1 4.89 8.78 27.87 9.44 19.03.5 20.62.72 26.41 3.43 7.88 3.67 15.42 11.21 19.12 19.09 2.49 5.29 2.9 7.57 2.9 16.44s-.4 11.15-2.9 16.47a42.224 42.224 0 01-19.12 19.09l-6.17 2.9-34.38.31-34.38.34v-13.08zm110.46-52.01v-64.99h26v51.98h52.01v-51.98h25.97V747.3h-25.97v-51.98h-52.01v51.98h-26v-64.96zm122.61 54.38c22.27-41.14 65.43-119.28 65.87-119.28.47 0 43.6 78.14 65.9 119.28l5.76 10.65-16.47-.31-16.47-.31-19.09-34.88c-10.5-19.18-19.31-34.88-19.62-34.88s-9.12 15.7-19.62 34.88l-19.09 34.88-16.44.31-16.51.31 5.79-10.65zm56.99 8.4a18.641 18.641 0 01-10.34-16.07c-1.07-10.18 6.31-19.3 16.49-20.37.46-.05.92-.08 1.39-.09 10.26-1.09 19.46 6.35 20.55 16.61.03.26.05.53.07.79 1.25 15.42-14.64 26.22-28.15 19.09v.03zm93.37-49.82v-51.98h-38.99v-25.97h104.02v25.97h-39.05v104.02h-26l.03-52.04zm77.98-12.99v-64.96h84.49v25.97h-58.49v26h52.01v26h-52.01v26h58.49v25.97h-84.49v-64.99zm97.47 0v-64.96h26.04v103.98h58.49v25.97H564.9l-.03-64.99zM7.82 575.23C113.02 383.31 218.54 191.57 324.38 0c.4 0 286.01 518.83 316.66 575.2l5.23 9.65-72.78-.31-72.78-.25-87.88-160.01C364.5 336.27 324.7 264.3 324.39 264.3s-40.08 71.97-88.44 159.98l-87.82 160.01-72.78.28-72.78.28 5.26-9.62zm299.15 8.04a86.658 86.658 0 01-44.85-24.85c-8.38-8.44-10.59-11.52-15.45-21.24-7.88-15.82-9.37-22.3-9.37-40.08s1.49-24.23 9.34-40.08c4.98-9.97 6.98-12.67 16.01-21.71 9.03-9.03 11.77-11.06 21.71-16.01 15.88-7.85 22.33-9.37 40.08-9.37s24.23 1.53 40.08 9.37c9.97 4.95 12.67 6.98 21.74 16.01 9.03 9.03 11.06 11.77 15.98 21.71 7.88 15.85 9.37 22.3 9.37 40.08s-1.49 24.23-9.37 40.08c-4.92 9.93-6.94 12.67-15.98 21.71-9.03 9.03-11.8 11.06-21.74 15.98-6.23 3.11-14.29 6.42-17.88 7.38-8.97 2.37-30.61 2.93-39.68 1.03z" fill="#012964" data-name="SVGRepo iconCarrier"/>
  <path d="M306.97 583.27a86.658 86.658 0 01-44.85-24.85c-8.38-8.44-10.59-11.52-15.45-21.24-7.88-15.82-9.37-22.3-9.37-40.08s1.49-24.23 9.34-40.08c4.98-9.97 6.98-12.67 16.01-21.71 9.03-9.03 11.77-11.06 21.71-16.01 15.88-7.85 22.33-9.37 40.08-9.37s24.23 1.53 40.08 9.37c9.97 4.95 12.67 6.98 21.74 16.01 9.03 9.03 11.06 11.77 15.98 21.71 7.88 15.85 9.37 22.3 9.37 40.08s-1.49 24.23-9.37 40.08c-4.92 9.93-6.94 12.67-15.98 21.71-9.03 9.03-11.8 11.06-21.74 15.98-6.23 3.11-14.29 6.42-17.88 7.38-8.97 2.37-30.61 2.93-39.68 1.03zm-10.93 161.84a18.641 18.641 0 01-10.34-16.07c-1.07-10.18 6.31-19.3 16.49-20.37.46-.05.92-.08 1.39-.09 10.26-1.09 19.46 6.35 20.55 16.61.03.26.05.53.07.79 1.25 15.42-14.64 26.22-28.15 19.09v.03z" fill="#f16323"/>
</svg>
