<svg xmlns="http://www.w3.org/2000/svg" data-name="Layer 1" viewBox="0 0 939.32 1000">
  <path fill="#fecd41" d="m491.66 0 48.33 5.17c186.7 27.71 341.38 169.15 385.38 352.62 16.56 69.07 14.18 141.87 13.31 212.72-.02 1.69.64 4.44-1.02 5.49-1.01-1.89-1.64-3.9-1.86-6.03l.43-40.26c-4.46 35.09-12.29 70.13-24.8 103.3-.48 1.28-1.26 2.45-2.06 3.62s-1.75 2.29-2.72 3.36c-.08 3.08-.45 6.01-1.44 8.91-6.22 18.14-17.61 37.49-27.32 53.88l-2.23 1.21c-.46 3.58-1.66 6.45-3.35 9.53-13.36 24.32-35.79 51.54-54.72 72.01-.74.8-1.71 1.38-2.72 1.97s-2.1 1.06-3.21 1.49c-.33 1.1-.7 2.19-1.19 3.21-2.42 5.03-19.58 22.31-24.57 24.64-1.03.48-2.13.83-3.24 1.14-.39 1.04-.81 2.06-1.36 3s-1.09 1.82-1.84 2.5c-16.65 15.14-35.9 28.46-54.63 40.93-.82.55-1.85.81-2.91 1.08s-2.16.4-3.26.49c-6.95 8.16-18.47 14.99-29 17-.53.86-1.09 1.7-1.75 2.44s-1.31 1.44-2.09 1.84c-18.56 9.4-36.92 17.48-56.4 24.8-.83.31-1.78.3-2.78.29s-1.99-.17-2.98-.37c-7.36 5.94-19.57 9.75-29 9-.79.75-1.61 1.46-2.51 2.06s-1.76 1.16-2.71 1.4a517 517 0 0 1-53.71 10.75c-.95.14-1.96-.05-3.01-.26s-2.06-.56-3.07-.95c-4.32 2.79-9.66 4.1-16.03 3.91-5.08 1.35-9.4 1.04-12.97-.91-.55.54-1.12 1.04-1.75 1.43-3.39 2.07-55.1 2.07-58.49 0-.64-.39-1.21-.89-1.75-1.43-.62.47-1.26.91-1.95 1.22-3.96 1.77-22.95-.99-27.05-4.22-1.19.37-2.38.7-3.6.88s-2.39.35-3.52.18c-17.43-2.47-34.65-6.04-51.71-10.36-1.1-.28-2.13-.89-3.18-1.52s-2.03-1.39-2.98-2.18c-9.43.75-21.64-3.06-29-9-.96.21-1.91.38-2.87.41s-1.88.05-2.67-.25c-19.63-7.34-38.09-15.57-56.8-24.99-.75-.38-1.37-1.07-2-1.79s-1.16-1.54-1.66-2.38c-10.54-1.99-22.04-8.84-29-17-1.17-.13-2.33-.3-3.44-.6s-2.2-.61-3.09-1.19c-18.19-12.04-36.66-24.86-52.91-39.42-.8-.72-1.41-1.66-2.01-2.64s-1.09-2.06-1.54-3.14c-1.08-.28-2.14-.6-3.15-1.05-4.88-2.19-23.46-20.91-25.75-25.84-.46-.99-.8-2.05-1.1-3.12l-2.73-.98c-19.83-21.46-43.58-47.17-57.57-73.03-1.76-3.25-3.34-6.19-3.7-10-.88-.49-1.73-1.02-2.49-1.66s-1.49-1.25-1.9-2.02c-10-18.74-19.39-38.14-25.88-58.35l.26-2.97-3.07-2.22C15.88 604.06 7.74 566.52 3.06 529.68l.46 40.25a16 16 0 0 1-1.86 6.03c-1.66-1.04-1-3.79-1.02-5.49-.88-70.79-3.27-143.76 13.31-212.72C61.7 159.2 240 9.13 445.24 1.04L447.66 0z"/>
  <path fill="#febd28" d="M876.66 778c-18.64 30.71-37.91 54.52-63 80l-1.41-3.62c-.52-23.05-.72-44.84-.59-65.38 23.82-25.42 46.5-54.73 64-85 .79.07 1.99.34 2.01.9.88 19.7 1.85 43.9.86 63.41-.18 3.53-.48 6.28-1.87 9.69m-94 109c-20.04 16.99-40.35 31.62-63 45l-2.01-.89c-.32-20.81-.63-41.62-.95-62.45l1.96-2.65c21.98-13.86 44.69-30.65 64-48l2 .93v64.53l-2 3.54Zm-93-4 2 .93q.12 31.11-.15 62.22l-1.85 1.86c-21.49 10.75-41.04 19.41-64 27l-1.4-3.48q-.81-31.62-.6-59.52c21.87-7.57 45.59-18.12 66-29Zm-95 38 2 .92v60.89l-2 1.19c-20.48 5.28-40.98 9.38-62 12l-1.44-2.11c-.42-19.14-.61-38.35-.57-57.64l-.98-2.26c21.08-2.65 44.23-7.34 65-13Zm-94 16 2 .92v59.88l-2 1.2c-2.53.08-6.31-.83-8 1h-46c-2.02-1.9-6.14-.87-9-1-.79-.1-1.97-.4-1.98-.95-.36-16.74.07-35.47.84-52.27-.68-4.42.04-7.34 2.14-8.77 18.61 1.04 43.39 1.04 62 0Zm437-361c-.92 36.49-7.05 71.91-17.73 106.77-3.44 11.23-7.34 22.57-12.27 33.23-3.92-3.63-3.51-15.17-2.04-20.41l2.04-1.09-2-.92V648.7l2-1.2c-1.85-1.02-2.18-3.52-1-7.5 16.38-42.05 26.2-87.02 30.01-132 1.75-.23.94 2.27.99 3.48.85 20.67.52 43.76 0 64.51Z"/>
  <path fill="#efab00" d="M907.66 716c-1.52 12.23-23.65 49.89-31 62l-1-74c11.09-19.17 22.97-43.39 31-64 .49 2.08 1 5.46 1 7.5v47c0 3.27-1.04 7.91-1.09 11-.05 3.33 1.59 6.49 1.09 10.5m-96 73c3.02-.56 1.94 1.53 2 3.45.73 21.8-.54 43.75 0 65.55-10.62 10.78-19.43 19.19-31 29v-69c10.16-9.13 19.67-19.04 29-29m-92 143c-10.28 6.07-19.4 10.7-30 16v-65c9.79-5.22 19.61-11.08 29-17z"/>
  <path fill="#efac00" d="M529.66 934c3.5-.12 2.76-.62 3 2.45 1.51 19.17-1.13 40.19 0 59.55-10.5 1.31-21.42 2.67-32 3v-62c8.98-.5 19.79-1.84 29-3"/>
  <path fill="#efab00" d="M623.66 912c3.02-.56 1.94 1.53 2 3.45.66 19.8-.49 39.74 0 59.55-10.24 3.39-20.55 6.31-31 9v-63c9.54-2.6 19.65-5.76 29-9"/>
  <path fill="#febd28" d="M63.66 705c16.77 28.87 41.22 59.69 64 84 .13 21.69-.07 43.55-.58 65.58l-1.42 3.42c-25.95-26.38-44.86-50.17-64-82-.17-22.8.03-45.67.58-68.61zm157 161 1.8 2.25c-.12 20.85-.39 41.71-.79 62.58l-2.02 1.17c-22.65-13.38-42.95-28.02-63-45l-1.94-4.01c.31-20.94.62-41.89.92-62.83l2.02-1.16c19.2 17.15 41.22 33.29 63 47Zm95 46 .13 56.42c-.29 2.33-1 4.52-2.13 6.58-22.96-7.59-42.51-16.25-64-27l-2-2.23V884.2l2-1.2c20.32 10.79 44.26 21.47 66 29m94 22-.14 1.34-.57 55.7-1.29 4.96c-21.44-2.62-42.11-6.62-63-12l-1.76-.92c-.28-20.25-.36-40.55-.24-60.89l2-1.19c20.95 5.71 43.44 10.28 65 13m-376-294c1.83 25.23 1.8 50.13-.1 74.71l-1.9 1.29c-18.62-44.08-28.79-92-30-140-.52-20.75-.85-43.84 0-64.51.05-1.21-.76-3.72.99-3.48 3.15 38.72 10.91 77.29 23.53 113.97 2.12 6.17 5.12 12.01 7.48 18.02"/>
  <path fill="#efab00" d="M63.66 705c-.96 22.56 1.56 46.37-.6 68.72-.16 1.68 1.85 2.64-1.4 2.28-7.24-12.04-28.47-47.65-30-60-.49-3.98 1.03-7.04 1.09-10.5.33-20.29-.18-41.04-.64-61.5-.04-1.82-.31-2.86 1.55-4 8.4 21.4 18.46 45.13 30 65m64 84c9.64 10.28 19.49 20.61 30 30l-1 68c-11.58-9.81-20.39-18.21-31-29 .64-21.79-.86-43.77 0-65.55.08-1.93-1.03-4.01 2-3.45m122 94v65c-10.6-5.3-19.72-9.93-30-16l1-66c9.42 5.93 19.17 11.78 29 17m66 29c9.35 3.24 19.46 6.4 29 9v63c-10.45-2.69-20.76-5.61-31-9 .58-19.79-.78-39.76 0-59.55.08-1.93-1.03-4.01 2-3.45m94 22c9.33 1.18 19.77 2.49 29 3l-1 62c-10.06-.47-20.03-1.78-30-3-.21-18.16.27-36.37.05-54.54-.03-2.89-3.01-7.16 1.95-7.46"/>
  <path fill="#fabd27" d="M32.66 455c1.5.81.8 5.2.82 4.94 4.17-57 17.78-106.67 43.68-157.82 98.4-194.23 323.52-288.13 530.49-219.25 161.37 53.71 284.57 199.91 298.19 371.04l.83-.91c1.66 1.04 1 3.8 1.02 5.49 3.6 291.55-266.46 508.18-551.03 433.02C161.94 840.09 29.54 661.58 31.65 460.49c.02-1.69-.64-4.45 1.02-5.49Z"/>
  <path fill="#efab00" d="M32.66 455C34.44 232.95 219.2 47.88 438.17 32.01 682.09 14.34 901.91 207.14 906.66 453c.09 4.45.18 9.05 0 13.51-.05 1.21.76 3.72-.99 3.49-.12-6.33-.32-13.21-1.02-19.49C876.74 197.99 636.22 22.32 386.46 70.29 193.75 107.31 45.12 273.33 33.65 469.99c-1.74.23-.94-2.27-.99-3.48-.15-3.81-.03-7.7 0-11.51"/>
  <path fill="#fede6e" d="M382.66 570c1.08 14.54-3.88 28.41-10.28 41.25-37.93 76.11-137.69 94.07-199.93 36.63-21.56-19.9-38.82-49.94-37.8-79.88-2.64-25.63-5.82-70.61 32.49-67.98 40.33 2.77 24.74 48.64 31.78 73.21 17.57 61.29 110.2 56.48 121.28-7.18 3.34-125.32.52-251.07 1.45-376.55 7.89-35.1 56.3-33.31 61.99 2.01l.06 368.04c-.58 3.45-.65 7.01-1.05 10.45Zm49-98c-.38-2.81-.86-5.62-1.05-8.46l.13-272.96c6.87-34.22 52.75-35.4 61.83-2l.05 271.95c.9 10.21 7.75 15.56 17.56 16.44 11.02.99 29.88.84 41.02.06 12.59-.89 18.93-4.26 20.34-17.66 1.63-15.61-3.37-47.73 2.92-60.08 13.14-25.79 53.55-19.83 58.75 8.66 2.36 12.94 1.29 50.51-.55 64.05-1 38.97-34.33 64.94-71.31 69.04-51.73 5.73-128.29-2.39-129.69-69.04m326 192c-.3 45.03-37.41 87.6-78.23 103.48-18.6 7.24-57.44 13.01-76.2 3.97-4.53-2.18-12.91-7.1-11.58-12.46-12.64-19.21.13-45.43 22.63-47.87 15.71-1.7 27.3 1.78 43.37-4.63 48.28-19.25 39.54-79.89 39.02-122.01-.02-1.69.64-4.44-1.02-5.49l-2.17-2.68c-.53-18.02-9.21-33.08-18.28-48.06l.45-3.26c-20.23-36.09 26.05-68.23 52.98-34.48 16.73 20.98 28.58 59.31 30.07 85.93 1.4 24.93 1.75 63.12-1.05 87.55Z"/>
  <path fill="#efab00" d="M382.66 570c1.48 7.31 1.5 16.95.99 24.49-6.72 99.55-123.81 151.82-202.46 89.49-36.14-28.64-48.02-65.39-47.55-110.49.02-1.69-.64-4.45 1.02-5.49 8.35 81.18 91.37 132.27 168.25 103.75 42.89-15.91 74.54-56.24 79.75-101.75m250-98c1.66 1.04 1 3.79 1.02 5.49.47 38.42-9.65 71.17-48.05 86.98-18.85 7.76-62.22 7.05-83.51 5.58-28.46-1.97-55.88-22.33-66.11-48.89-6-15.58-5.53-27.27-5.36-43.67.02-1.69-.64-4.45 1.02-5.49 9.12 68.02 74.55 70.65 129.55 67.05 36.71-2.41 66.55-30.87 71.45-67.05Zm-41 287c11.55 17.57 35.57 15.41 54.54 14.04 56.92-4.12 105.04-53.02 111.46-109.04 1.47 7 1.48 16.3 1.05 23.55-3.33 56.1-46.49 105.29-101.84 115.16-14.42 2.57-42.4 5.02-55.11-2.3s-20.85-29.35-10.09-41.41Z"/>
  <path fill="#fede6e" d="M502.66 641c.51 6.34-11.23 9.07-16.73 9.23s-17.39-1.88-17.27-8.23c-13.54-13.15-6.12-38.4 13.46-40.04 22.54-1.89 35.52 22.53 20.54 39.04m60 1c-10.82-10.13-8.9-30.27 4.3-37.21 25.21-13.24 47.91 18 28.7 37.21.3 6.18-11.14 8.26-16.46 8.22s-16.71-2.2-16.54-8.22"/>
  <path fill="#efab00" d="M468.66 642c8.96 8.71 25.62 8.24 34-1 12.43 12.54 4.29 34.5-12.18 38.31-18.19 4.22-35.02-15.45-26.65-32.64.86-1.78 2.46-4.68 4.83-4.67m94 0c8.65 8.1 24.51 8.5 33 0 10.29 4.84 7.65 21.53 1.51 29.01-16.67 20.31-48.13 2.26-40.41-22.41.81-2.59 2.79-6.38 5.9-6.6"/>
  <path fill="#efac01" d="M675.66 525c11.29 20.15 18.71 28.91 20 54 .32 6.13.25 13.35 0 19.51-.05 1.21.75 3.72-.99 3.48-1.12-14.8-7.8-27.94-14.82-40.69-3.76-6.83-8.16-9.76-9.08-18.91-.42-4.16-.37-16.21 4.89-17.4Z"/>
</svg>
