<svg fill="none" xmlns="http://www.w3.org/2000/svg" viewBox="0 0 180 180">
  <g clip-path="url(#WIsNYTuUvg-ea)">
    <path d="M94.094 126.291a14.681 14.681 0 01-2.932 1.882c-.668.071-1.34.124-2.015.163v-7.834a230.78 230.78 0 01-4.871-4.107v11.943a44.351 44.351 0 01-2.013-.165 14.688 14.688 0 01-2.934-1.882c-3.167-2.579-6.132-6.931-8.406-12.532h10.353a264.347 264.347 0 01-5.297-4.871H69.22c-.807-2.684-1.457-5.579-1.952-8.616a276.619 276.619 0 01-5.605-5.976c.408 5.185 1.243 10.103 2.488 14.592H51.709a40.85 40.85 0 01-6.052-19.167h11.944a225.72 225.72 0 01-4.105-4.871h-7.839a41.122 41.122 0 011.37-8.339 158.208 158.208 0 01-4.634-6.656 47.47 47.47 0 00-3.307 17.432c.001 26.304 21.32 47.621 47.624 47.623 6.153 0 12.03-1.181 17.428-3.306a165.214 165.214 0 01-8.918-6.325c-.373.36-.747.703-1.126 1.012zm-36.467-9.921a41.336 41.336 0 01-2.387-2.611h10.492c.781 2.131 1.64 4.16 2.603 6.025 1.134 2.191 2.39 4.184 3.761 5.95a41.151 41.151 0 01-14.47-9.364zm-5.54-61.765a100.46 100.46 0 003.524 5.803c.65-.755 1.31-1.5 2.016-2.206a41.179 41.179 0 0114.5-9.378c-2.55 3.275-4.696 7.339-6.403 11.988H55.87a139.287 139.287 0 003.358 4.87h4.936a72.3 72.3 0 00-1.181 5.016 202.586 202.586 0 004.09 5.083c.513-3.58 1.232-6.982 2.171-10.099h15.032V84.85h-9.253a248.438 248.438 0 004.624 4.87h4.63v4.63a248.112 248.112 0 004.87 4.624V89.72h17.996c-.2 6.993-1.261 13.519-2.962 19.168h-3.566a183.31 183.31 0 006.91 5.307c.056-.15.12-.286.176-.436h10.482a41.82 41.82 0 01-2.386 2.611 40.065 40.065 0 01-2.198 2.023c1.996 1.3 3.934 2.48 5.792 3.52 9.198-8.682 14.947-20.98 14.947-34.626-.002-26.304-21.323-47.624-47.628-47.626-13.647.002-25.94 5.75-34.623 14.944zm69.627 54.283h-12.455c1.608-5.795 2.582-12.28 2.77-19.167h15.737a40.852 40.852 0 01-6.052 19.167zm-.004-43.206a40.851 40.851 0 016.055 19.168h-15.752c-.19-6.881-1.135-13.376-2.743-19.167h12.44zm-5.915-7.48a41.104 41.104 0 012.384 2.61h-10.488c-.781-2.13-1.642-4.159-2.603-6.023-1.134-2.19-2.39-4.183-3.76-5.951a41.195 41.195 0 0114.467 9.364zM89.147 46.234c.677.042 1.35.094 2.017.165a14.57 14.57 0 012.93 1.88c3.168 2.577 6.131 6.931 8.405 12.533H89.147V46.234zm0 19.449H104.2c1.702 5.647 2.756 12.181 2.957 19.167h-18.01V65.683zM79.329 48.28a14.635 14.635 0 012.93-1.882c.668-.072 1.34-.124 2.017-.165v14.579H70.95a45.34 45.34 0 011.712-3.788c1.957-3.793 4.259-6.776 6.667-8.744z" fill="#fff"/>
    <path d="M139.166 120.004c-.987-2.659-2.357-5.533-4.034-8.581a54.269 54.269 0 01-3.892 6.575 48.771 48.771 0 011.836 4.261c.991 2.655 1.438 4.87 1.43 6.351 0 .703-.094 1.231-.216 1.586-.124.357-.254.542-.403.696-.15.146-.334.274-.693.4-.353.12-.881.213-1.584.213-1.398.007-3.453-.388-5.912-1.268-2.464-.874-5.338-2.21-8.492-3.964-10.812-6.009-24.855-16.921-38.701-30.776-13.856-13.847-24.768-27.89-30.778-38.703-1.754-3.154-3.089-6.027-3.964-8.49-.878-2.46-1.275-4.515-1.269-5.913 0-.704.096-1.232.216-1.584.124-.358.252-.54.4-.693.155-.15.339-.28.697-.404.354-.12.882-.216 1.587-.216 1.48-.008 3.695.44 6.346 1.427a49.414 49.414 0 014.28 1.842 54.27 54.27 0 016.571-3.892c-3.054-1.683-5.934-3.054-8.598-4.04-3.117-1.146-5.947-1.822-8.598-1.831-1.261.002-2.492.16-3.671.558-1.177.396-2.3 1.053-3.208 1.966-.91.905-1.565 2.026-1.958 3.201-.398 1.178-.556 2.407-.558 3.666.008 2.505.612 5.167 1.644 8.086 1.037 2.916 2.523 6.08 4.408 9.474 6.46 11.591 17.66 25.93 31.861 40.137 14.208 14.202 28.546 25.402 40.136 31.862 3.395 1.885 6.559 3.37 9.475 4.407 2.919 1.031 5.581 1.635 8.086 1.643 1.259 0 2.488-.16 3.666-.557 1.174-.394 2.294-1.048 3.201-1.958a8.228 8.228 0 001.965-3.206c.398-1.179.557-2.41.558-3.668-.009-2.655-.685-5.487-1.834-8.607z" fill="#2DC57B"/>
  </g>
  <g filter="url(#WIsNYTuUvg-eb)">
    <path d="M69 155h42c35 0 49-14 49-49V64c0-35-14-49-49-49H69c-35 0-49 14-49 49v42c0 35 14 49 49 49z" stroke="#2DC57B" stroke-width="8" stroke-linecap="round" stroke-linejoin="round" shape-rendering="crispEdges"/>
  </g>
  <defs>
    <clipPath id="WIsNYTuUvg-ea">
      <path fill="#fff" transform="translate(36 33)" d="M0 0h105v105H0z"/>
    </clipPath>
    <filter id="WIsNYTuUvg-eb" x="0" y="0" width="180" height="180" filterUnits="userSpaceOnUse" color-interpolation-filters="sRGB">
      <feFlood flood-opacity="0" result="BackgroundImageFix"/>
      <feColorMatrix in="SourceAlpha" type="matrix" values="0 0 0 0 0 0 0 0 0 0 0 0 0 0 0 0 0 0 127 0" result="hardAlpha"/>
      <feOffset dy="5"/>
      <feGaussianBlur stdDeviation="8"/>
      <feComposite in2="hardAlpha" operator="out"/>
      <feColorMatrix type="matrix" values="0 0 0 0 0.368627 0 0 0 0 0.835294 0 0 0 0 0.658824 0 0 0 0.25 0"/>
      <feBlend mode="normal" in2="BackgroundImageFix" result="effect1_dropShadow_11_4"/>
      <feBlend mode="normal" in="SourceGraphic" in2="effect1_dropShadow_11_4" result="shape"/>
    </filter>
  </defs>
</svg>
