<svg xmlns="http://www.w3.org/2000/svg" xmlns:xlink="http://www.w3.org/1999/xlink" fill="none" viewBox="0 0 393 428">
  <g filter="url(#a)">
    <path fill="#33435D" d="M369 388h-5c0-3.866-4.029-7-9-7s-9 3.134-9 7h-8c0-3.866-4.029-7-9-7s-9 3.134-9 7h-8c0-3.866-4.029-7-9-7s-9 3.134-9 7h-8c0-3.866-4.029-7-9-7s-9 3.134-9 7h-8c0-3.866-4.029-7-9-7s-9 3.134-9 7h-8c0-3.866-4.029-7-9-7s-9 3.134-9 7h-8c0-3.866-4.029-7-9-7s-9 3.134-9 7h-8c0-3.866-4.029-7-9-7s-9 3.134-9 7h-8c0-3.866-4.029-7-9-7s-9 3.134-9 7h-8c0-3.866-4.029-7-9-7s-9 3.134-9 7h-8c0-3.866-4.03-7-9-7s-9 3.134-9 7h-8c0-3.866-4.03-7-9-7s-9 3.134-9 7h-8c0-3.866-4.03-7-9-7s-9 3.134-9 7H24V24h345z"/>
  </g>
  <defs>
    <filter id="a" width="409" height="428" x="-8" y="0" color-interpolation-filters="sRGB" filterUnits="userSpaceOnUse">
      <feFlood flood-opacity="0" result="BackgroundImageFix"/>
      <feColorMatrix in="SourceAlpha" result="hardAlpha" type="matrix" values="0 0 0 0 0 0 0 0 0 0 0 0 0 0 0 0 0 0 127 0"/>
      <feOffset dy="8"/>
      <feGaussianBlur stdDeviation="16"/>
      <feComposite in2="hardAlpha" operator="out"/>
      <feColorMatrix type="matrix" values="0 0 0 0 0 0 0 0 0 0 0 0 0 0 0 0 0 0 0.16 0"/>
      <feBlend in2="BackgroundImageFix" mode="normal" result="effect1_dropShadow_1_845"/>
      <feBlend in="SourceGraphic" in2="effect1_dropShadow_1_845" mode="normal" result="shape"/>
    </filter>
  </defs>
</svg>
