<svg fill="none" xmlns="http://www.w3.org/2000/svg" viewBox="0 0 24 24">
  <path d="M9 6.803A6 6 0 116.803 9" stroke="#fff" stroke-linecap="round"/>
  <path d="M5 13.5c-1.214 1.182-1.4 2.36-1 3 .758 1.212 5.302-.137 9.373-2.306l2.377-1.432C18.426 10.935 20.598 8.956 20 8c-.368-.587-.991-.779-2.5-.5" stroke="#2DC57B" stroke-linecap="round" stroke-linejoin="round"/>
  <path d="M9 22h6c5 0 7-2 7-7V9c0-5-2-7-7-7H9C4 2 2 4 2 9v6c0 5 2 7 7 7z" stroke="#2DC57B" stroke-linecap="round" stroke-linejoin="round"/>
</svg>
