<svg width="24" height="24" viewBox="0 0 24 24" fill="none" xmlns="http://www.w3.org/2000/svg">
<path d="M9 22H15C20 22 22 20 22 15V9C22 4 20 2 15 2H9C4 2 2 4 2 9V15C2 20 4 22 9 22Z" stroke="#2DC57B" stroke-linecap="round" stroke-linejoin="round"/>
<path d="M18.9191 8.11342L18.917 8.10862L18.916 8.10731C18.8405 7.97773 18.7318 7.87064 18.6011 7.79708L12.4136 4.31662C12.2872 4.24604 12.1448 4.20898 12 4.20898C11.8552 4.20898 11.7128 4.24604 11.5864 4.31662L5.39886 7.79708C5.26791 7.87085 5.15904 7.97826 5.08352 8.1082L5.08225 8.11006L5.08 8.11524C5.00731 8.2423 4.96896 8.3861 4.96875 8.53248V15.4683C4.96887 15.618 5.00876 15.765 5.08433 15.8942C5.15991 16.0234 5.26845 16.1302 5.39886 16.2037L11.5864 19.6842C11.7072 19.7515 11.8427 19.788 11.9809 19.7906C11.9868 19.791 11.9923 19.7924 11.9983 19.7925H12.0008C12.0079 19.7925 12.0145 19.791 12.0215 19.7904C12.1589 19.7875 12.2936 19.7511 12.4136 19.6842L18.6011 16.2037C18.7316 16.1302 18.8401 16.0234 18.9157 15.8942C18.9913 15.765 19.0311 15.618 19.0312 15.4683V8.53248C19.0311 8.3854 18.9924 8.24093 18.9191 8.11342ZM11.8621 4.80688C11.9043 4.78335 11.9517 4.771 12 4.771C12.0483 4.771 12.0957 4.78335 12.1379 4.80688L18.1785 8.20475L15.456 9.75142L9.20298 6.30267L11.8621 4.80688ZM12.0654 11.6777L5.82582 8.20231L8.62635 6.62701L14.8823 10.0774L12.0654 11.6777ZM5.67461 15.7134C5.63114 15.6889 5.59496 15.6533 5.56977 15.6103C5.54457 15.5672 5.53128 15.5182 5.53124 15.4683V8.68207L11.784 12.1648L11.7229 19.1156L5.67461 15.7134ZM18.3254 15.7134L12.2855 19.1108L12.3466 12.1649L15.1656 10.5633V13.7238C15.1656 13.7984 15.1953 13.8699 15.248 13.9227C15.3008 13.9754 15.3723 14.005 15.4469 14.005C15.5215 14.005 15.593 13.9754 15.6458 13.9227C15.6985 13.8699 15.7281 13.7984 15.7281 13.7238V10.2437L18.4687 8.68677V15.4683C18.4687 15.5182 18.4554 15.5672 18.4302 15.6103C18.405 15.6533 18.3688 15.6889 18.3254 15.7134Z" fill="white" stroke="white" stroke-width="0.5"/>
<path d="M9 6.5L15.5 10V14" stroke="#2DC57B" stroke-width="1.2" stroke-linecap="round"/>
</svg>
