<svg fill="none" xmlns="http://www.w3.org/2000/svg" viewBox="0 0 16 15">
  <path d="M14.608 1.915A4.72 4.72 0 0011.248.52h-.002a4.723 4.723 0 00-3.16 1.205 4.774 4.774 0 00-6.541.189 4.767 4.767 0 000 6.733l.003.003 5.033 4.884c.405.393.939.61 1.503.61h.002a2.15 2.15 0 001.503-.612l5.016-4.882.003-.003a4.767 4.767 0 000-6.733zm-.403 6.328l-5.015 4.88c-.62.603-1.59.604-2.21.002L1.946 8.243a4.195 4.195 0 01.002-5.924 4.201 4.201 0 015.92-.013L8 2.334A.285.285 0 108.464 2v.156a4.156 4.156 0 012.782-1.063h.002c1.116 0 2.165.435 2.956 1.226a4.163 4.163 0 011.227 2.963 4.16 4.16 0 01-1.226 2.961z" fill="#2DC57B"/>
  <path d="M2.5 2.5L10 10M8.5 2.5L13 7" stroke="#fff" stroke-width=".6" stroke-linecap="round"/>
</svg>
