<svg fill="none" xmlns="http://www.w3.org/2000/svg" viewBox="0 0 21 17">
  <path d="M5.299 3.45a8.737 8.737 0 0115.357 5.712m0 0a28.032 28.032 0 01-.591 5.496M5.299 3.45l-.447.653a1.454 1.454 0 00-1.213 1.14" stroke="#2DC57B" stroke-width=".7" stroke-linecap="round" stroke-linejoin="round"/>
  <path d="M4.852 4.103a18.887 18.887 0 016.748 1.23c3.53 1.356 4.816 2.5 5.275 3.169a1.15 1.15 0 01-.163 1.52 1.092 1.092 0 01-1.421.06" stroke="#2DC57B" stroke-width=".7" stroke-linecap="round" stroke-linejoin="round"/>
  <path d="M13.605 8.887C11.051 6.452 2.343 4.659 1.898 5.392c-.275.453-.502 1.097-.32 1.338m-.001 0S.593 8.35.927 8.585c0 0-.32-.036-.479.649-.16.685-.16.962.27 1.258.431.296.936.73.936.73L.589 13.868s-.128 1.098 2.322 1.715a1.976 1.976 0 002.366-.95m3.861 1.46c1.428.692 3.224.603 3.74.05a7.197 7.197 0 00.995-1.693s.623 1.256 2.682 1.235a6.797 6.797 0 003.51-1.028" stroke="#2DC57B" stroke-width=".7" stroke-linecap="round" stroke-linejoin="round"/>
  <path d="M11.944 12.775s-4.008-2.171-6.88-2.62a24.024 24.024 0 00-4.72-.334m.583-1.236a12.677 12.677 0 013.577.135 18.39 18.39 0 015.123 1.643l.707-1.633a22.233 22.233 0 00-5.796-1.831c-.98-.142-1.97-.198-2.96-.169m12.295 7.72l1.417-4.368" stroke="#2DC57B" stroke-width=".7" stroke-linecap="round" stroke-linejoin="round"/>
  <path d="M11.62 9.626a.39.39 0 100-.781.39.39 0 000 .78zm-.858 1.76a.39.39 0 100-.78.39.39 0 000 .78z" fill="#2DC57B"/>
  <path d="M9.138 16.093S2.804 13.125.59 13.869" stroke="#2DC57B" stroke-width=".7" stroke-linecap="round" stroke-linejoin="round"/>
</svg>
