<svg fill="none" xmlns="http://www.w3.org/2000/svg" viewBox="0 0 164 180">
  <g filter="url(#fYhS4ipRXNFfa)">
    <path d="M53 155h42c35 0 49-14 49-49V64c0-35-14-49-49-49H53C18 15 4 29 4 64v42c0 35 14 49 49 49z" stroke="#2DC57B" stroke-width="8" stroke-linecap="round" stroke-linejoin="round" shape-rendering="crispEdges"/>
  </g>
  <mask id="fYhS4ipRXNFfb" maskUnits="userSpaceOnUse" x="78.537" y="51" width="49" height="69" fill="#000">
    <path fill="#fff" d="M78.537 51h49v69h-49z"/>
    <path d="M91.271 56h3.867v3.867l-5.814-1.947L91.271 56zm3.867 0h3.867v3.867h-3.867V56zm3.867 0h3.867v3.867h-3.867V56zm3.867 0h3.866v3.867h-3.866V56zm3.866 0h3.867v3.867h-3.867V56zm3.867 0h3.867l1.947 1.92-5.814 1.947V56zm0 3.867l5.814-1.947-1.947 5.814h-3.867v-3.867zm5.814-1.947l1.92 1.947 1.973 1.894-5.84 1.973 1.947-5.814zm-9.681 1.947h3.867v3.867h-3.867v-3.867zm-3.866 0h3.866v3.867h-3.866v-3.867zm-3.867 0h3.867v3.867h-3.867v-3.867zm-3.867 0h3.867v3.867h-3.867v-3.867zm-5.814-1.947l5.814 1.947v3.867H91.27l-1.947-5.814zm-3.893 3.84l5.84 1.974V67.6h-3.867l-1.973-5.84zm1.973-1.893l1.92-1.947 1.947 5.814-5.84-1.974 1.973-1.893zm-3.867 3.867l1.894-1.974 1.973 5.84h-3.867v-3.866zm7.734 0h3.867V67.6H91.27v-3.867zm3.867 0h3.867V67.6h-3.867v-3.867zm3.867 0h3.867V67.6h-3.867v-3.867zm3.867 0h3.866V67.6h-3.866v-3.867zm3.866 0h3.867V67.6h-3.867v-3.867zm3.867 0h3.867V67.6h-3.867v-3.867zm3.867 0l5.84-1.974-1.973 5.84h-3.867v-3.866zm5.84-1.974l1.894 1.974V67.6h-3.867l1.973-5.84zm-1.973 5.84h3.867v3.868h-3.867V67.6zm-3.867 0h3.867v3.868h-3.867V67.6zm-3.867 0h3.867v3.868h-3.867V67.6zm-3.867 0h3.867v3.868l-1.908-1.96-1.959-1.907zm3.867 3.868h3.867v3.866h-3.867v-3.867zm7.734 0h3.867v3.866h-3.867v-3.867zm-3.867 0h3.867v3.866h-3.867v-3.867zm3.867 23.2h3.867v3.867h-3.867V94.67zm0 3.867h3.867v3.867h-3.867v-3.867zm0 3.867h3.867v3.867l-1.812 2.055-2.055-5.922zm-3.867 0h3.867l2.055 5.922-5.922-2.055v-3.867zm0-3.867h3.867v3.867h-3.867v-3.867zm0-3.866h3.867v3.867h-3.867v-3.867zm-3.867 0h3.867v3.867h-3.867v-3.867zm0 3.867h3.867v3.866h-3.867v-3.867zm-1.908 1.958l1.908-1.959v3.867h-3.867l1.959-1.908zm1.908 1.908h3.867v3.867h-3.867v-3.867zm3.867 3.867l5.922 2.055-2.055 1.812-1.838 2.029-2.029-5.896zm-3.867 0h3.867l2.029 5.896-5.896-2.029v-3.867zm-3.867-3.867h3.867v3.867h-3.867v-3.867zm0 3.867h3.867v3.867h-3.867v-3.867zm3.867 3.867l5.896 2.029-2.029 1.838h-3.867v-3.867zm-3.867 0h3.867v3.867h-3.867v-3.867zm-3.866 0h3.866v3.867h-3.866v-3.867zm-3.867 0h3.867v3.867h-3.867v-3.867zm-3.867 0h3.867v3.867h-3.867v-3.867zm-5.773 2.029l5.773-2.029v3.867H91.27l-1.906-1.838zm1.906-5.896h3.867v3.867l-5.773 2.029 1.906-5.896zm3.867 0h3.867v3.867h-3.867v-3.867zm0-3.867h3.867v3.867h-3.867v-3.867zm3.867 0h3.867v3.867h-3.867v-3.867zm3.867 0h3.866v3.867h-3.866v-3.867zm0 3.867h3.866v3.867h-3.866v-3.867zm-3.867 0h3.867v3.867h-3.867v-3.867zm-13.48 2.055l5.746-2.055-1.906 5.896-1.96-2.029-1.88-1.812zm5.746-5.922h3.867v3.867H91.27v-3.867zm3.867-3.867l1.908 1.959 1.959 1.908h-3.867v-3.867zm-3.867 0h3.867v3.867H91.27v-3.867zm-3.867 0h3.867v3.867h-3.867v-3.867zm0 3.867h3.867v3.867l-5.746 2.055 1.88-5.922zm-3.867 0h3.867l-1.879 5.922-1.988-2.055v-3.867zm0-3.867h3.867v3.867h-3.867v-3.867zm0-3.866h3.867v3.867h-3.867v-3.867zm0-3.867h3.867v3.867h-3.867v-3.867zm0-3.867h3.867v3.867h-3.867v-3.867zm0-3.867h3.867v3.867h-3.867v-3.867zm0-3.867h3.867v3.867h-3.867v-3.867zm0-3.867h3.867v3.867h-3.867v-3.867zm0-3.867h3.867v3.867h-3.867v-3.867zm0-3.866h3.867v3.867h-3.867V67.6zm3.867 0h3.867v3.867h-3.867V67.6zm3.867 0h3.867v3.867H91.27V67.6zm3.867 0h3.867l-1.959 1.908-1.908 1.959V67.6zm-3.867 3.867h3.867v3.866H91.27v-3.867zm0 3.866h3.867v3.867H91.27v-3.867zm0 3.867h3.867v3.867H91.27v-3.867zm0 3.867h3.867v3.867H91.27v-3.867zm0 3.867h3.867v3.867H91.27v-3.867zm0 3.867h3.867v3.867H91.27v-3.867zm0 3.867h3.867v3.867H91.27v-3.867zm-3.867 0h3.867v3.867h-3.867v-3.867zm0-3.867h3.867v3.867h-3.867v-3.867zm0-3.867h3.867v3.867h-3.867v-3.867zm0-3.867h3.867v3.867h-3.867v-3.867zm0-3.867h3.867v3.867h-3.867v-3.867zm0-3.867h3.867v3.867h-3.867v-3.867zm0-3.867h3.867v3.867h-3.867v-3.867z"/>
  </mask>
  <path d="M89.324 57.92l.794-2.37-4.757-1.593 1.593 4.757 2.37-.794zm27.095 0l2.371.794 1.593-4.758-4.758 1.593.794 2.371zm3.893 3.84l2.369.8 1.617-4.785-4.786 1.617.8 2.368zm-34.881 0l.8-2.368-4.785-1.617 1.617 4.786 2.368-.8zm13.574 5.84v2.5h2.5v-2.5h-2.5zm7.733 0h-2.5v2.5h2.5v-2.5zm3.867 3.868h-2.5v2.5h2.5v-2.5zm9.789 36.856l-.819 2.362 4.872 1.691-1.691-4.872-2.362.819zm-9.789-9.788v-2.5h-2.5v2.5h2.5zm-3.867 3.866v-2.5h-2.5v2.5h2.5zm9.763 9.763l-.814 2.364 4.845 1.667-1.667-4.845-2.364.814zm-27.136 0l-2.378-.769-1.552 4.8 4.76-1.673-.83-2.358zm9.64-9.763h2.5v-2.5h-2.5v2.5zm-13.48 5.922l-2.383-.756-1.526 4.81 4.751-1.7-.842-2.354zm9.613-9.788h2.5v-2.5h-2.5v2.5zm0-27.069v2.5h2.5v-2.5h-2.5zM92.638 56v3.867h5V56h-5zm3.294 1.496l-5.814-1.947-1.587 4.742 5.813 1.947 1.588-4.742zM96.505 56v3.867h5V56h-5zm2.5 1.367h-3.867v5h3.867v-5zM100.372 56v3.867h5V56h-5zm2.5 1.367h-3.867v5h3.867v-5zM104.238 56v3.867h5V56h-5zm2.5 1.367h-3.866v5h3.866v-5zM108.105 56v3.867h5V56h-5zm2.5 1.367h-3.867v5h3.867v-5zm5.02-1.817l-5.813 1.946 1.587 4.741 5.814-1.946-1.588-4.741zm-1.577 1.576l-1.946 5.814 4.741 1.588 1.947-5.814-4.742-1.588zm.424 4.108h-3.867v5h3.867v-5zm-1.367 2.5v-3.867h-5v3.867h5zm6.407-4.342l-5.84 1.973 1.6 4.737 5.841-1.973-1.601-4.737zm-8.907 1.842h-3.867v5h3.867v-5zm-1.367 2.5v-3.867h-5v3.867h5zm-2.5-2.5h-3.866v5h3.866v-5zm-1.366 2.5v-3.867h-5v3.867h5zm-2.5-2.5h-3.867v5h3.867v-5zm-1.367 2.5v-3.867h-5v3.867h5zm-2.5-2.5h-3.867v5h3.867v-5zm-1.367 2.5v-3.867h-5v3.867h5zm-2.5-2.5H91.27v5h3.867v-5zm-1.496 1.706l-1.947-5.814-4.741 1.588 1.946 5.814 4.742-1.588zm-9.011 1.189l5.84 1.973 1.6-4.737-5.84-1.973-1.6 4.737zm4.14-.395V67.6h5v-3.867h-5zm2.5 1.367h-3.867v5h3.867v-5zm-1.498 1.7l-1.974-5.84-4.737 1.6 1.974 5.84 4.737-1.6zm-2.369-1.7h-3.867v5h3.867v-5zm5.234-1.367V67.6h5v-3.867h-5zm2.5 1.367H91.27v5h3.867v-5zm1.367-1.367V67.6h5v-3.867h-5zm2.5 1.367h-3.867v5h3.867v-5zm1.367-1.367V67.6h5v-3.867h-5zm3.866 0V67.6h5v-3.867h-5zm3.867 0V67.6h5v-3.867h-5zm2.5 1.367h-3.867v5h3.867v-5zm1.367-1.367V67.6h5v-3.867h-5zm2.5 1.367h-3.867v5h3.867v-5zm3.472-4.14l-1.973 5.84 4.737 1.6 1.973-5.84-4.737-1.6zm.395 4.14h-3.867v5h3.867v-5zm3.867 0h-3.867v5h3.867v-5zm0 3.867h-3.867v5h3.867v-5zm-1.367 2.5V67.6h-5v3.867h5zm-2.5-2.5h-3.867v5h3.867v-5zm-1.367 2.5V67.6h-5v3.867h5zm-2.5-2.5h-3.867v5h3.867v-5zm-1.367 2.5V67.6h-5v3.867h5zm-1.133 0v3.866h5v-3.867h-5zm8.867 3.866v-3.867h-5v3.867h5zm1.367 20.701h-3.867v5.001h3.867v-5zm-1.367 2.5V94.67h-5v3.867h5zm1.367 1.367h-3.867v5h3.867v-5zm-1.367 2.5v-3.867h-5v3.867h5zm1.917 5.103l-2.055-5.922-4.724 1.639 2.056 5.922 4.723-1.639zm-8.284-2.603h3.867v-5h-3.867v5zm6.742 1.061l-5.922-2.056-1.639 4.724 5.922 2.055 1.639-4.723zm-4.242.306v-3.867h-5v3.867h5zm-2.5-5.233h3.867v-5h-3.867v5zm2.5 1.366v-3.867h-5v3.867h5zm0-3.867V94.67h-5v3.867h5zm-2.5-2.5h-3.867v5.001h3.867v-5zm0 3.867h-3.867v5h3.867v-5zm-1.367 2.5v-3.867h-5v3.867h5zm-2.5-2.5h-3.867v5h3.867v-5zm3.867 3.867h-3.867v5h3.867v-5zm-1.367 2.5v-3.867h-5v3.867h5zm5.76 5.082l-2.029-5.895-4.728 1.627 2.029 5.895 4.728-1.627zm-1.551-1.55l-5.895-2.029-1.627 4.728 5.895 2.029 1.627-4.728zm-4.209.335v-3.867h-5v3.867h5zm-2.5-6.367h-3.867v5h3.867v-5zm-1.367 2.5v-3.867h-5v3.867h5zm1.367 1.367h-3.867v5h3.867v-5zm-1.367 2.5v-3.867h-5v3.867h5zm3.867 3.867v-3.867h-5v3.867h5zm-3.867 0v-3.867h-5v3.867h5zm-6.366-1.367h3.866v-5h-3.866v5zm2.5 1.367v-3.867h-5v3.867h5zm-6.367-1.367h3.867v-5h-3.867v5zm2.5 1.367v-3.867h-5v3.867h5zm-6.367-1.367h3.867v-5h-3.867v5zm2.5 1.367v-3.867h-5v3.867h5zm-7.444.52l5.773-2.028-1.658-4.717-5.772 2.028 1.657 4.717zm1.077-5.754h3.867v-5H91.27v5zm1.367-2.5v3.867h5v-3.867h-5zm-.894 6.665l1.906-5.896-4.758-1.538-1.905 5.896 4.757 1.538zm3.394-4.165h3.867v-5h-3.867v5zm1.367-2.5v3.867h5v-3.867h-5zm-1.367-1.367h3.867v-5h-3.867v5zm1.367-2.5v3.867h5v-3.867h-5zm1.133 3.867v-3.867h-5v3.867h5zm2.734-3.867v3.867h5v-3.867h-5zm2.5 1.367h-3.867v5h3.867v-5zm3.866 0h-3.866v5h3.866v-5zm-1.366 6.367v-3.867h-5v3.867h5zm-19.005.542l5.746-2.055-1.684-4.708-5.746 2.056 1.684 4.707zm4.904-5.776h3.867v-5H91.27v5zm2.5 1.367v-3.867h-5v3.867h5zm3.867-3.867v-3.867h-5v3.867h5zm-6.367-1.366h3.867v-5H91.27v5zm2.5 1.366v-3.867h-5v3.867h5zm-6.367-1.366h3.867v-5h-3.867v5zm3.867-1.134h-3.867v5h3.867v-5zm-1.367 2.5v-3.867h-5v3.867h5zm-1.996 6.679l1.88-5.923-4.767-1.512-1.879 5.922 4.766 1.513zm-4.37-4.179h3.866v-5h-3.867v5zm0-3.866h3.866v-5h-3.867v5zm0-3.867h3.866v-5h-3.867v5zm1.366-2.5v3.867h5v-3.867h-5zm-1.367-1.367h3.867v-5h-3.867v5zm1.367-2.5v3.867h5v-3.867h-5zm-1.367-1.367h3.867v-5h-3.867v5zm1.367-2.5v3.867h5v-3.867h-5zm-1.367-1.367h3.867v-5h-3.867v5zm1.367-2.5v3.867h5v-3.867h-5zm-1.367-1.367h3.867v-5h-3.867v5zm1.367-2.5v3.867h5v-3.867h-5zm-1.367-1.367h3.867v-5h-3.867v5zm1.367-2.5v3.867h5v-3.867h-5zm-1.367-1.367h3.867v-5h-3.867v5zm1.367-2.5v3.867h5v-3.867h-5zm0-3.866v3.867h5V67.6h-5zm3.867 0v3.867h5V67.6h-5zm2.5 1.367h-3.867v5h3.867v-5zm1.367-1.367v3.867h5V67.6h-5zm2.5 1.367H91.27v5h3.867v-5zm0 3.866H91.27v5h3.867v-5zm-1.367 2.5v-3.867h-5v3.867h5zm1.367 1.367H91.27v5h3.867v-5zm-1.367 2.5v-3.867h-5v3.867h5zm1.367 1.367H91.27v5h3.867v-5zm-1.367 2.5v-3.867h-5v3.867h5zm1.367 1.367H91.27v5h3.867v-5zm-1.367 2.5v-3.867h-5v3.867h5zm1.367 1.367H91.27v5h3.867v-5zm-1.367 2.5v-3.867h-5v3.867h5zm1.367 1.367H91.27v5h3.867v-5zm-1.367 2.5v-3.867h-5v3.867h5zm0 3.867v-3.867h-5v3.867h5zm-6.367-1.367h3.867v-5h-3.867v5zm0-3.867h3.867v-5h-3.867v5zm0-3.867h3.867v-5h-3.867v5zm0-3.867h3.867v-5h-3.867v5zm0-3.867h3.867v-5h-3.867v5zm0-3.867h3.867v-5h-3.867v5zM91.271 56v-5H89.22l-1.46 1.44L91.27 56zm-1.947 1.92l-3.51-3.56-.025.025-.024.024 3.56 3.511zM114.472 56l3.511-3.56-1.46-1.44h-2.051v5zm1.947 1.92l3.56-3.511-.024-.024-.025-.024-3.511 3.56zm1.92 1.947l-3.56 3.511.049.049.049.047 3.462-3.607zm1.973 1.894l3.608-3.463-.071-.074-.075-.071-3.462 3.608zm-34.881 0l-3.462-3.608-.074.071-.072.075 3.608 3.462zm1.973-1.894l3.462 3.607.05-.047.048-.049-3.56-3.511zm-3.867 3.867l-3.607-3.462-1.393 1.45v2.012h5zM99.005 67.6v-5h-2.033l-1.456 1.418 3.489 3.582zm7.733 0l3.49-3.582-1.457-1.418h-2.033v5zm15.468-3.867h5v-2.011l-1.393-1.451-3.607 3.462zm-11.601 7.733h5v-2.032l-1.418-1.457-3.582 3.49zm-1.908-1.958l3.582-3.49-.046-.046-.047-.046-3.489 3.582zm1.908 5.825h-5v5h5v-5zm11.601 0v5h5v-5h-5zm0 19.335h5v-5h-5v5zm0 11.6l3.751 3.306 1.249-1.417v-1.889h-5zm-1.812 2.055l3.307 3.751.236-.208.208-.236-3.751-3.307zm-9.789-13.655v-5h-5v5h5zm0 3.867l3.582 3.489 1.418-1.457v-2.032h-5zm-1.908 1.958l3.489 3.582.047-.046.046-.047-3.582-3.489zm-1.959 1.908v5h2.033l1.457-1.418-3.49-3.582zm11.601 7.734l-3.306-3.751-.211.186-.188.208 3.705 3.357zm-1.838 2.029l3.357 3.705.183-.165.165-.183-3.705-3.357zm-2.029 1.838v5h1.928l1.429-1.295-3.357-3.705zm-25.107-1.838l-3.594 3.475.06.063.063.06 3.471-3.598zm1.906 1.838l-3.471 3.599 1.453 1.401h2.018v-5zm7.734-11.601l-3.49 3.582 1.457 1.418h2.033v-5zm-13.48 5.922l-3.594 3.477.06.062.064.061 3.47-3.6zm1.88 1.812l3.594-3.475-.061-.063-.064-.061-3.47 3.599zm7.733-11.6h-5v2.032l1.418 1.457 3.582-3.49zm1.908 1.958l-3.581 3.489.045.047.047.046 3.49-3.582zm-13.509 5.775h-5v2.023l1.406 1.453 3.594-3.476zm11.6-34.802l-3.58-3.489-1.42 1.457v2.032h5zm1.91-1.958l-3.49-3.582-.047.046-.045.047 3.581 3.489zM91.27 61h3.867V51H91.27v10zm1.564.48l1.947-1.92-7.022-7.12-1.947 1.92 7.022 7.12zm2.303-.48h3.867V51h-3.867v10zm3.867 0h3.867V51h-3.867v10zm3.867 0h3.866V51h-3.866v10zm3.866 0h3.867V51h-3.867v10zm3.867 0h3.867V51h-3.867v10zm.356-1.44l1.947 1.92 7.022-7.12-1.947-1.92-7.022 7.12zm1.898 1.871l1.92 1.947 7.12-7.022-1.92-1.947-7.12 7.022zm2.018 2.043l1.973 1.894 6.924-7.215-1.973-1.894-6.924 7.215zm-23.913-.096l1.92-1.947-7.12-7.022-1.92 1.947 7.12 7.022zm-2.071 1.99l1.973-1.894-6.924-7.215-1.973 1.894 6.924 7.215zm-1.748 1.828l1.894-1.974-7.216-6.923-1.893 1.973 7.215 6.924zm1.392.405v-3.867h-10V67.6h10zm14.335-5h-3.867v10h3.867v-10zm3.866 0h-3.866v10h3.866v-10zm9.967 2.621l1.893 1.974 7.215-6.924-1.893-1.974-7.215 6.924zm.501-1.488V67.6h10v-3.867h-10zm0 3.867v3.867h10V67.6h-10zm-3.019.377l-1.908-1.958-7.163 6.978 1.908 1.959 7.163-6.979zm-2.001-2.05l-1.958-1.909-6.979 7.163 1.959 1.908 6.978-7.163zm2.286 4.406h-3.867v10h3.867v-10zm1.133 5v-3.867h-10v3.867h10zm1.601-3.867v3.867h10v-3.867h-10zm5-1.133h-3.867v10h3.867v-10zm-3.867 0h-3.867v10h3.867v-10zm0 29.335h3.867v-10h-3.867v10zm-1.133-5v3.867h10v-3.867h-10zm0 3.867v3.866h10v-3.867h-10zm0 3.866v3.867h10v-3.867h-10zm1.249.561l-1.812 2.055 7.502 6.613 1.812-2.056-7.502-6.612zm-3.983-3.294h3.867v-10h-3.867v10zm-3.867 0h3.867v-10h-3.867v10zm5-1.133v-3.867h-10v3.867h10zm-3.326 5.447l1.908-1.958-7.163-6.979-1.908 1.96 7.163 6.977zm-2.051 2.001l1.958-1.908-6.978-7.163-1.959 1.908 6.979 7.163zm6.86-1.41l-2.055 1.811 6.612 7.502 2.056-1.812-6.613-7.501zm-2.454 2.205l-1.838 2.029 7.41 6.714 1.838-2.029-7.41-6.714zm-1.49 1.681l-2.029 1.838 6.714 7.41 2.029-1.838-6.714-7.41zm1.328.543h-3.867v10h3.867v-10zm-3.867 0h-3.867v10h3.867v-10zm-3.867 0h-3.866v10h3.866v-10zm-3.866 0h-3.867v10h3.867v-10zm-3.867 0h-3.867v10h3.867v-10zm-3.867 0H91.27v10h3.867v-10zm-.396 1.401l-1.905-1.838-6.943 7.197 1.906 1.839 6.942-7.198zm4.263-3.002h3.867v-10h-3.867v10zm3.867 0h3.866v-10h-3.866v10zm-9.912 1.288L91 106.661l-7.19 6.95 1.962 2.029 7.19-6.95zm-2.085-2.153l-1.88-1.812-6.94 7.199 1.879 1.812 6.94-7.199zm.681-4.512l1.909 1.958 7.162-6.978-1.908-1.959-7.162 6.979zm2.001 2.051l1.959 1.908 6.978-7.163-1.959-1.908-6.978 7.163zm-4.438.772l-1.988-2.055-7.188 6.952 1.988 2.056 7.188-6.953zm-.582 1.421v-3.867h-10v3.867h10zm0-3.867v-3.867h-10v3.867h10zm0-3.867V94.67h-10v3.867h10zm0-3.866v-3.867h-10v3.867h10zm0-3.867v-3.867h-10v3.867h10zm0-3.867v-3.867h-10v3.867h10zm0-3.867v-3.867h-10v3.867h10zm0-3.867v-3.867h-10v3.867h10zm0-3.867v-3.867h-10v3.867h10zm0-3.867v-3.866h-10v3.867h10zm6.979-7.448l-1.959 1.908 6.978 7.163 1.959-1.908-6.978-7.163zm-2.051 2l-1.909 1.96 7.163 6.978 1.908-1.96-7.162-6.977zm-3.327 5.448v3.867h10v-3.867h-10zm0 3.867v3.867h10v-3.867h-10zm0 3.867v3.867h10v-3.867h-10zm0 3.867v3.867h10v-3.867h-10zm0 3.867v3.867h10v-3.867h-10zm0 3.867v3.867h10v-3.867h-10zm0 3.867v3.867h10v-3.867h-10z" fill="#fff" mask="url(#fYhS4ipRXNFfb)"/>
  <mask id="fYhS4ipRXNFfc" maskUnits="userSpaceOnUse" x="21" y="51" width="49" height="69" fill="#000">
    <path fill="#fff" d="M21 51h49v69H21z"/>
    <path d="M33.734 56H37.6v3.867h-3.867V56zm19.334 0h3.867v3.867h-3.867V56zm0 3.867h3.867v3.867h-3.867v-3.867zm3.867 0h3.867v3.867h-3.867v-3.867zm-23.201 0H37.6v3.867h-3.867v-3.867zm-3.867 3.867h3.867V67.6h-3.867v-3.867zm0-3.867h3.867v3.867h-3.867v-3.867zM26 63.734h3.867V67.6H26v-3.867zm7.734 0H37.6V67.6h-3.867v-3.867zm19.334 0h3.867V67.6h-3.867v-3.867zm3.867 0h3.867V67.6h-3.867v-3.867zm3.867 0h3.867V67.6h-3.867v-3.867zm0 3.867h3.867v3.867h-3.867V67.6zm-3.867 0h3.867v3.867h-3.867V67.6zm-3.867 0h3.867v3.867h-3.867V67.6zm0 3.867h3.867v3.866h-3.867v-3.867zm0 3.866h3.867v3.867h-3.867v-3.867zm0 3.867h3.867v3.867h-3.867v-3.867zm0 3.867h3.867v3.867h-3.867v-3.867zm0 3.867h3.867v3.867h-3.867v-3.867zm3.867-3.867h3.867v3.867h-3.867v-3.867zm3.867 0h3.867v3.867h-3.867v-3.867zm0-3.867h3.867v3.867h-3.867v-3.867zm0-3.867h3.867v3.867h-3.867v-3.867zm0-3.867h3.867v3.867h-3.867v-3.867zm-3.867 0h3.867v3.867h-3.867v-3.867zm0 3.867h3.867v3.867h-3.867v-3.867zm0 3.867h3.867v3.867h-3.867v-3.867zm0 7.734h3.867v3.867h-3.867v-3.867zm0 3.867h3.867v3.867h-3.867v-3.867zm3.867 0h3.867v3.867h-3.867v-3.867zm0-3.867h3.867v3.867h-3.867v-3.867zm0 7.734h3.867v3.867h-3.867v-3.867zm0 3.867h3.867v3.866h-3.867v-3.867zm0 3.866h3.867v3.867l-1.812 2.055-2.055-5.922zm-3.867 0h3.867l2.055 5.922-5.922-2.055v-3.867zm0-3.867h3.867v3.867h-3.867v-3.867zm0-3.866h3.867v3.867h-3.867v-3.867zm-3.867-3.867h3.867v3.867h-3.867v-3.867zm0 3.867h3.867v3.867h-3.867v-3.867zm0 3.867h3.867v3.866h-3.867v-3.867zm-2.106 2.108l2.106-2.109v3.867h-3.867l1.761-1.758zm2.106 1.758h3.867v3.867h-3.867v-3.867zm3.867 3.867l5.922 2.055-2.055 1.812-1.838 2.029-2.03-5.896zm-3.867 0h3.867l2.029 5.896-5.896-2.029v-3.867zm-3.867-3.867h3.867v3.867h-3.867v-3.867zm0 3.867h3.867v3.867h-3.867v-3.867zm3.867 3.867l5.896 2.029-2.03 1.838h-3.866v-3.867zm-3.867 0h3.867v3.867h-3.867v-3.867zm-3.867 0h3.867v3.867h-3.867v-3.867zm-3.867 0h3.867v3.867h-3.867v-3.867zm-3.866 0h3.867v3.867H37.6v-3.867zm-5.84 2.029l5.84-2.029v3.867h-3.867l-1.974-1.838zm1.973-5.896H37.6v3.867l-5.84 2.029 1.973-5.896zm3.867 0h3.867v3.867H37.6v-3.867zm0-3.867h3.867v3.867H37.6v-3.867zm3.867 0h3.866v3.867h-3.867v-3.867zm3.866 0h3.867v3.867h-3.867v-3.867zm0 3.867h3.867v3.867h-3.867v-3.867zm-3.867 0h3.867v3.867h-3.867v-3.867zm-13.547 1.947l5.814-1.947-1.974 5.896-1.893-2.029-1.947-1.92zm5.814-5.814H37.6v3.867h-3.867v-3.867zm3.867-3.867l1.84 2.109 2.026 1.758h-3.866v-3.867zm-3.867 0H37.6v3.867h-3.867v-3.867zm-3.867 0h3.867v3.867h-3.867v-3.867zm0 3.867h3.867v3.867l-5.814 1.947 1.947-5.814zm-3.867 0h3.867l-1.947 5.814-1.92-1.947v-3.867zm0-3.867h3.867v3.867H26v-3.867zm0-3.866h3.867v3.867H26v-3.867zm0-3.867h3.867v3.867H26v-3.867zm0-3.867h3.867v3.867H26v-3.867zm0-3.867h3.867v3.867H26v-3.867zm0-3.867h3.867v3.867H26v-3.867zm0-3.867h3.867v3.867H26v-3.867zm0-3.867h3.867v3.867H26v-3.867zm0-3.866h3.867v3.867H26V67.6zm3.867 0h3.867v3.867h-3.867V67.6zm3.867 0H37.6v3.867h-3.867V67.6zm0 3.867H37.6v3.866h-3.867v-3.867zm0 3.866H37.6v3.867h-3.867v-3.867zm0 3.867H37.6v3.867h-3.867v-3.867zm0 3.867H37.6v3.867h-3.867v-3.867zm0 3.867H37.6v3.867h-3.867v-3.867zm0 3.867H37.6v3.867h-3.867v-3.867zm0 3.867H37.6v3.867h-3.867v-3.867zm-3.867 0h3.867v3.867h-3.867v-3.867zm0-3.867h3.867v3.867h-3.867v-3.867zm0-3.867h3.867v3.867h-3.867v-3.867zm0-3.867h3.867v3.867h-3.867v-3.867zm0-3.867h3.867v3.867h-3.867v-3.867zm0-3.867h3.867v3.867h-3.867v-3.867zm0-3.867h3.867v3.867h-3.867v-3.867zm0-15.467h3.867v3.867h-3.867V56zM26 56h3.867v3.867H26V56zm0 3.867h3.867v3.867H26v-3.867zM56.935 56h3.867v3.867h-3.867V56zm3.867 0h3.867v3.867h-3.867V56zm0 3.867h3.867v3.867h-3.867v-3.867z"/>
  </mask>
  <path d="M62.857 108.324l-.82 2.362 4.873 1.691-1.691-4.872-2.362.819zm-9.789-9.788v-2.5h-2.5v2.5h2.5zm-3.867 3.866v-2.5h-2.5v2.5h2.5zm9.763 9.763l-.814 2.364 4.845 1.667-1.667-4.845-2.364.814zm-27.203 0l-2.371-.794-1.615 4.825 4.806-1.67-.82-2.361zm9.707-9.763h2.5v-2.5h-2.5v2.5zm-13.548 5.814l-2.37-.794-1.594 4.758 4.758-1.593-.794-2.371zm9.68-9.68h2.5v-2.5h-2.5v2.5zm0-41.17h-3.866v5H37.6v-5zm-1.366 2.5V56h-5v3.867h5zM54.434 56v3.867h5V56h-5zm2.5 1.367h-3.866v5h3.867v-5zm-2.5 2.5v3.867h5v-3.867h-5zm2.5 1.367h-3.866v5h3.867v-5zm0 1.133h3.868v-5h-3.867v5zm1.368-2.5v3.867h5v-3.867h-5zm2.5 1.367h-3.867v5h3.867v-5zm-23.201 0h-3.867v5H37.6v-5zm-1.367 2.5v-3.867h-5v3.867h5zm-6.367 2.5h3.867v-5h-3.867v5zm1.367-2.5V67.6h5v-3.867h-5zm2.5 1.367h-3.867v5h3.867v-5zm-1.367 2.5v-3.867h-5V67.6h5zm-2.5-5.234h3.867v-5h-3.867v5zm2.5 1.367v-3.867h-5v3.867h5zM26 66.234h3.867v-5H26v5zm3.867-1.133H26v5h3.867v-5zm7.734 0h-3.867v5H37.6v-5zm16.834-1.367V67.6h5v-3.867h-5zm2.5 1.367h-3.867v5h3.867v-5zm1.367-1.367V67.6h5v-3.867h-5zm2.5 1.367h-3.867v5h3.867v-5zm0 1.133h3.867v-5h-3.867v5zm3.867-1.133h-3.867v5h3.867v-5zm0 3.867h-3.867v5h3.867v-5zm-1.367 2.5V67.6h-5v3.867h5zm-2.5-2.5h-3.867v5h3.867v-5zm-1.367 2.5V67.6h-5v3.867h5zm-2.5-2.5h-3.867v5h3.867v-5zm-2.5 2.5v3.866h5v-3.867h-5zm2.5 1.366h-3.867v5h3.867v-5zm-2.5 2.5v3.867h5v-3.867h-5zm2.5 1.367h-3.867v5h3.867v-5zm-2.5 2.5v3.867h5v-3.867h-5zm2.5 1.367h-3.867v5h3.867v-5zm-2.5 2.5v3.867h5v-3.867h-5zm2.5 1.367h-3.867v5h3.867v-5zm-2.5 2.5v3.867h5v-3.867h-5zm2.5 1.367h-3.867v5h3.867v-5zm0-2.734h3.867v-5h-3.867v5zm1.367-2.5v3.867h5v-3.867h-5zm2.5 1.367h-3.867v5h3.867v-5zm0 1.133h3.867v-5h-3.867v5zm3.867-1.133h-3.867v5h3.867v-5zM60.802 81.7h3.867v-5h-3.867v5zm2.5 1.367V79.2h-5v3.867h5zm-2.5-5.234h3.867v-5h-3.867v5zm2.5 1.367v-3.867h-5V79.2h5zm0-3.867v-3.867h-5v3.867h5zm-2.5-2.5h-3.867v5h3.867v-5zm0 3.867h-3.867v5h3.867v-5zm-2.5 10.234v3.867h5v-3.867h-5zm2.5 1.367h-3.867v5h3.867v-5zm-2.5 2.5v3.867h5v-3.867h-5zm2.5 1.367h-3.867v5h3.867v-5zm-1.367 2.5v-3.867h-5v3.867h5zm1.367-1.367h3.867v-5h-3.867v5zm3.867-1.133h-3.867v5h3.867v-5zm0 3.867h-3.867v5h3.867v-5zm-1.367 2.5v-3.867h-5v3.867h5zm1.367 1.366h-3.867v5h3.867v-5zm-1.367 2.5v-3.867h-5v3.867h5zm1.917 5.103l-2.055-5.922-4.724 1.639 2.055 5.922 4.724-1.639zm-8.284-2.603h3.867v-5h-3.867v5zm6.742 1.061l-5.922-2.056-1.64 4.724 5.922 2.055 1.64-4.723zm-4.242.306v-3.867h-5v3.867h5zm-2.5-5.233h3.867v-5h-3.867v5zm2.5 1.366v-3.867h-5v3.867h5zm0-3.867V94.67h-5v3.867h5zm-2.5-6.366h-3.867v5h3.867v-5zm0 3.867h-3.867v5h3.867v-5zm0 3.866h-3.867v5h3.867v-5zm-1.367 2.5v-3.867h-5v3.867h5zm-2.5-2.5h-3.867v5h3.867v-5zm3.867 3.867h-3.867v5h3.867v-5zm-1.367 2.5v-3.867h-5v3.867h5zm5.76 5.082l-2.03-5.895-4.727 1.627 2.029 5.895 4.728-1.627zm-1.55-1.55l-5.896-2.029-1.627 4.728 5.895 2.029 1.627-4.728zm-4.21.335v-3.867h-5v3.867h5zm-2.5-6.367h-3.867v5h3.867v-5zm-1.367 2.5v-3.867h-5v3.867h5zm1.367 1.367h-3.867v5h3.867v-5zm-1.367 2.5v-3.867h-5v3.867h5zm3.867 3.867v-3.867h-5v3.867h5zm-3.867 0v-3.867h-5v3.867h5zm-6.367-1.367h3.867v-5h-3.867v5zm2.5 1.367v-3.867h-5v3.867h5zm-6.367-1.367h3.867v-5h-3.867v5zm2.5 1.367v-3.867h-5v3.867h5zm-6.366-1.367h3.867v-5H37.6v5zm2.5 1.367v-3.867h-5v3.867h5zm-7.52.523l5.84-2.028-1.64-4.723-5.84 2.028 1.64 4.723zm1.153-5.757H37.6v-5h-3.867v5zm1.367-2.5v3.867h5v-3.867h-5zm-.97 6.689l1.974-5.895-4.742-1.587-1.973 5.895 4.741 1.587zm3.47-4.189h3.867v-5H37.6v5zm1.367-2.5v3.867h5v-3.867h-5zm-1.367-1.367h3.867v-5H37.6v5zm1.367-2.5v3.867h5v-3.867h-5zm1.133 3.867v-3.867h-5v3.867h5zm2.733-3.867v3.867h5v-3.867h-5zm2.5 1.367h-3.867v5h3.867v-5zm3.867 0h-3.867v5h3.867v-5zm-1.367 6.367v-3.867h-5v3.867h5zm-19.12.451l5.814-1.947-1.588-4.741-5.814 1.946 1.588 4.742zm5.02-5.685H37.6v-5h-3.867v5zm2.5 1.367v-3.867h-5v3.867h5zm3.867-3.867v-3.867h-5v3.867h5zm-6.367-1.366H37.6v-5h-3.867v5zm2.5 1.366v-3.867h-5v3.867h5zm-6.367-1.366h3.867v-5h-3.867v5zm3.867-1.134h-3.867v5h3.867v-5zm-1.367 2.5v-3.867h-5v3.867h5zm-2.076 6.608l1.946-5.814-4.74-1.587-1.948 5.813 4.742 1.588zM26 104.902h3.867v-5H26v5zm0-3.866h3.867v-5H26v5zm0-3.867h3.867v-5H26v5zm1.367-2.5v3.867h5v-3.867h-5zM26 93.302h3.867v-5H26v5zm1.367-2.5v3.867h5v-3.867h-5zM26 89.435h3.867v-5H26v5zm1.367-2.5v3.867h5v-3.867h-5zM26 85.568h3.867v-5H26v5zm1.367-2.5v3.867h5v-3.867h-5zM26 81.701h3.867v-5H26v5zm1.367-2.5v3.867h5v-3.867h-5zM26 77.834h3.867v-5H26v5zm1.367-2.5v3.867h5v-3.867h-5zM26 73.967h3.867v-5H26v5zm1.367-2.5v3.867h5v-3.867h-5zm0-3.866v3.867h5V67.6h-5zm3.867 0v3.867h5V67.6h-5zm2.5 1.367h-3.867v5h3.867v-5zm3.867 0h-3.867v5H37.6v-5zm0 3.866h-3.867v5H37.6v-5zm-1.367 2.5v-3.867h-5v3.867h5zm1.367 1.367h-3.867v5H37.6v-5zm-1.367 2.5v-3.867h-5v3.867h5zm1.367 1.367h-3.867v5H37.6v-5zm-1.367 2.5v-3.867h-5v3.867h5zm1.367 1.367h-3.867v5H37.6v-5zm-1.367 2.5v-3.867h-5v3.867h5zm1.367 1.367h-3.867v5H37.6v-5zm-1.367 2.5v-3.867h-5v3.867h5zm1.367 1.367h-3.867v5H37.6v-5zm-1.367 2.5v-3.867h-5v3.867h5zm0 3.867v-3.867h-5v3.867h5zm-6.367-1.367h3.867v-5h-3.867v5zm0-3.867h3.867v-5h-3.867v5zm0-3.867h3.867v-5h-3.867v5zm0-3.867h3.867v-5h-3.867v5zm0-3.867h3.867v-5h-3.867v5zm0-3.867h3.867v-5h-3.867v5zm2.5-17.967V56h-5v3.867h5zm-2.5-2.5H26v5h3.867v-5zM58.302 56v3.867h5V56h-5zm6.367 1.367h-3.867v5h3.867v-5zM37.6 56h5v-5h-5v5zm15.467 0v-5h-5v5h5zm11.6 50.269l3.751 3.306 1.25-1.417v-1.889h-5zm-1.811 2.055l3.306 3.751.237-.208.208-.236-3.751-3.307zm-9.789-9.788l3.538 3.533 1.462-1.464v-2.07h-5zm-2.106 2.108l3.533 3.538.005-.005-3.538-3.533zm-1.76 1.758v5h2.068l1.464-1.462-3.533-3.538zm11.6 7.734l-3.306-3.751-.211.186-.188.208 3.705 3.357zm-1.838 2.029l3.357 3.705.182-.165.166-.183-3.705-3.357zm-2.03 1.838v5h1.93l1.428-1.295-3.357-3.705zm-25.173-1.838l-3.656 3.412.12.127.127.119 3.409-3.658zm1.973 1.838l-3.408 3.659 1.44 1.341h1.968v-5zm7.733-11.601l-3.277 3.777 1.41 1.223h1.867v-5zm-13.547 5.814l-3.56 3.511.024.025.025.024 3.511-3.56zm1.947 1.92l3.655-3.412-.07-.075-.074-.073-3.511 3.56zm7.734-11.6h-5v1.875l1.233 1.413 3.767-3.288zm1.84 2.108l-3.767 3.288.228.261.262.227 3.277-3.776zM26 106.269h-5v2.051l1.44 1.46 3.56-3.511zM26 56v-5h-5v5h5zm38.669 0h5v-5h-5v5zm-30.935 5H37.6V51h-3.867v10zM32.6 56v3.867h10V56h-10zm20.467 5h3.867V51h-3.867v10zm5-1.133V56h-10v3.867h10zm0 3.867v-3.867h-10v3.867h10zM32.6 59.867v3.867h10v-3.867h-10zM31 67.6v-3.867H21V67.6h10zm1.6-3.867V67.6h10v-3.867h-10zM58.069 67.6v-3.867h-10V67.6h10zm1.6-3.867V67.6h10v-3.867h-10zm0 3.867v3.867h10V67.6h-10zm-1.6 3.867V67.6h-10v3.867h10zm0 3.866v-3.867h-10v3.867h10zm0 3.867v-3.867h-10V79.2h10zm0 3.867V79.2h-10v3.867h10zm0 3.867v-3.867h-10v3.867h10zm0 3.867v-3.867h-10v3.867h10zm1.6-7.734v3.867h10v-3.867h-10zm0-3.867v3.867h10V79.2h-10zm0-3.867V79.2h10v-3.867h-10zm0-3.867v3.867h10v-3.867h-10zm0 19.335v3.867h10v-3.867h-10zm0-3.867v3.867h10v-3.867h-10zm0 7.734v3.867h10v-3.867h-10zm0 3.867v3.866h10v-3.867h-10zm0 3.866v3.867h10v-3.867h-10zm1.25.561l-1.812 2.055 7.502 6.613 1.811-2.056-7.501-6.612zm-2.85-8.294v-3.867h-10v3.867h10zm0 3.867v-3.867h-10v3.867h10zm-3.568 5.641l2.106-2.108-7.075-7.067-2.106 2.108 7.075 7.067zm-1.766 1.763l1.761-1.758-7.066-7.076-1.76 1.758 7.065 7.076zm6.817-1.366l-2.055 1.811 6.612 7.502 2.055-1.812-6.612-7.501zm-2.455 2.205l-1.838 2.029 7.41 6.714 1.839-2.029-7.41-6.714zm-1.49 1.681l-2.028 1.838 6.714 7.41 2.029-1.838-6.715-7.41zm1.329.543h-3.867v10h3.867v-10zm-3.867 0h-3.867v10h3.867v-10zm-3.867 0h-3.867v10h3.867v-10zm-3.867 0h-3.867v10h3.867v-10zm-3.867 0h-3.866v10h3.867v-10zm-3.866 0h-3.867v10H37.6v-10zm-.46 1.341l-1.972-1.838-6.817 7.317 1.974 1.839 6.816-7.318zm4.327-2.942h3.866v-10h-3.867v10zm3.866 0h3.867v-10h-3.867v10zm-9.918 1.351l-1.894-2.029-7.31 6.824 1.893 2.029 7.31-6.824zm-2.038-2.177l-1.947-1.92-7.022 7.12 1.947 1.92 7.022-7.12zm.456-4.752l1.84 2.108 7.534-6.576-1.84-2.109-7.534 6.577zm2.33 2.596l2.026 1.759 6.555-7.553-2.027-1.758-6.554 7.552zm-4.684.285l-1.92-1.947-7.12 7.022 1.92 1.947 7.12-7.022zm-.48 1.564v-3.867H21v3.867h10zm0-3.867v-3.867H21v3.867h10zm0-3.867V94.67H21v3.867h10zm0-3.866v-3.867H21v3.867h10zm0-3.867v-3.867H21v3.867h10zm0-3.867v-3.867H21v3.867h10zm0-3.867V79.2H21v3.867h10zm0-3.867v-3.867H21V79.2h10zm0-3.867v-3.867H21v3.867h10zm0-3.867V67.6H21v3.867h10zm1.6-3.866v3.867h10V67.6h-10zm0 3.867v3.866h10v-3.867h-10zm0 3.866V79.2h10v-3.867h-10zm0 3.867v3.867h10V79.2h-10zm0 3.867v3.867h10v-3.867h-10zm0 3.867v3.867h10v-3.867h-10zm0 3.867v3.867h10v-3.867h-10zm0 3.867v3.867h10v-3.867h-10zM29.868 61h3.867V51h-3.867v10zM26 61h3.867V51H26v10zm5-1.133V56H21v3.867h10zm0 3.867v-3.867H21v3.867h10zM56.935 61h3.867V51h-3.867v10zm3.867 0h3.867V51h-3.867v10zm-1.133-5v3.867h10V56h-10zm0 3.867v3.867h10v-3.867h-10z" fill="#fff" mask="url(#fYhS4ipRXNFfc)"/>
  <defs>
    <filter id="fYhS4ipRXNFfa" x="-16" y="0" width="180" height="180" filterUnits="userSpaceOnUse" color-interpolation-filters="sRGB">
      <feFlood flood-opacity="0" result="BackgroundImageFix"/>
      <feColorMatrix in="SourceAlpha" type="matrix" values="0 0 0 0 0 0 0 0 0 0 0 0 0 0 0 0 0 0 127 0" result="hardAlpha"/>
      <feOffset dy="5"/>
      <feGaussianBlur stdDeviation="8"/>
      <feComposite in2="hardAlpha" operator="out"/>
      <feColorMatrix type="matrix" values="0 0 0 0 0.368627 0 0 0 0 0.835294 0 0 0 0 0.658824 0 0 0 0.25 0"/>
      <feBlend mode="normal" in2="BackgroundImageFix" result="effect1_dropShadow_12_24"/>
      <feBlend mode="normal" in="SourceGraphic" in2="effect1_dropShadow_12_24" result="shape"/>
    </filter>
  </defs>
</svg>
