<svg xmlns="http://www.w3.org/2000/svg" fill="none" viewBox="0 0 24 24">
  <path stroke="#2DC57B" stroke-linecap="round" stroke-linejoin="round" d="M9 22h6c5 0 7-2 7-7V9c0-5-2-7-7-7H9C4 2 2 4 2 9v6c0 5 2 7 7 7"/>
  <path fill="#fff" d="M18.5 11h-2V6.5a.5.5 0 0 0-.75-.433L13.5 7.375 11 6.057a.5.5 0 0 0-.473 0l-2.5 1.365-2.277-1.35A.5.5 0 0 0 5 6.5v9.75A1.75 1.75 0 0 0 6.75 18H17q.044.003.087 0h.163A1.75 1.75 0 0 0 19 16.25V11.5a.5.5 0 0 0-.5-.5M6.75 17a.75.75 0 0 1-.75-.75V7.382l1.75 1.045a.5.5 0 0 0 .5.013l2.5-1.373 2.512 1.32a.5.5 0 0 0 .483 0l1.75-1v8.863c0 .26.058.516.17.75zM18 16.25a.75.75 0 1 1-1.5 0V12H18z"/>
  <path stroke="#2DC57B" stroke-width=".7" d="M11 11h-.375c-1.053 0-1.58 0-1.958.24a1.5 1.5 0 0 0-.414.395C8 11.995 8 12.497 8 13.5s0 1.505.253 1.865q.167.236.414.394c.378.241.905.241 1.958.241H11m0-5h.375c1.053 0 1.58 0 1.958.24.164.105.305.239.414.395.253.36.253.862.253 1.865M11 11v2.5m0 2.5h.375c1.053 0 1.58 0 1.958-.24.164-.105.305-.239.414-.395.253-.36.253-.862.253-1.865M11 16v-2.5m3 0h-3"/>
</svg>
