<svg fill="none" xmlns="http://www.w3.org/2000/svg" viewBox="0 0 24 24">
  <path d="M9 22h6c5 0 7-2 7-7V9c0-5-2-7-7-7H9C4 2 2 4 2 9v6c0 5 2 7 7 7z" stroke="#2DC57B" stroke-linecap="round" stroke-linejoin="round"/>
  <g clip-path="url(#VnbCdHuQudfma)" fill="#fff">
    <path d="M17.896 11.052c.038-.134.561-.101.694-.092.762.054 1.362.432 1.409 1.24.045.801-.73 1.434-1.513 1.118-.104-.041-.254-.187-.344-.179-.032.003-.311.193-.408.23-.582.229-1.365.148-1.79-.339-.356.565-1.33.564-1.857.223a1.755 1.755 0 01-1.861.924v-.648c0-.05.616-.136.74-.195.358-.174.542-.693.573-1.063.018-.21-.044-1.176.037-1.257.091-.09.66-.105.733.057.1.224-.04.947.035 1.26.113.462.91.49 1.156.06.198-.344.031-1.267.141-1.377.085-.084.632-.089.697.019.064.107-.005.898.028 1.118.1.678 1.11.698 1.396.21.04-.07.134-.32.134-.385 0-.199-.04-.783 0-.924zm.93.691c-.066.008-.141.034-.172.093-.026.05-.089.548-.086.622.01.243.432.253.585.054.217-.282.048-.813-.326-.769zm-14.13.659c.083.025.138.527.189.665.547 1.498 2.752 1.596 3.435.13.324-.692.132-1.395.168-2.127.086-.171.596-.106.754-.038.018 1.001.161 1.99-.44 2.861-1.058 1.53-3.518 1.455-4.439-.165-.128-.226-.446-1.036-.343-1.25a.356.356 0 01.075-.076c.132 0 .512-.026.601 0zm5.953.333c.711-.205 1.242-.674 1.417-1.396.057-.235-.083-.347.254-.379.645-.06.601.123.45.665a2.464 2.464 0 01-1.432 1.622c-.138.059-.623.227-.746.227h-.638a.36.36 0 01-.057-.055V9.055A.36.36 0 019.954 9h.638c.004 0 .056.051.056.055v3.68z"/>
    <path d="M6.584 11.558c.545-.072.643.791.1.844-.545.052-.645-.771-.1-.844zm7.96 2.627c.555-.09.655.696.208.797-.665.152-.707-.716-.208-.797zm-.752-4.4c.633-.142.727.829.104.809-.535-.017-.496-.722-.104-.81zm-2.702 4.4c.635-.103.674.902-.007.803-.44-.064-.433-.732.006-.803z"/>
    <path d="M15.408 14.184c.559-.105.682.703.207.798-.621.124-.706-.704-.207-.798z"/>
  </g>
  <defs>
    <clipPath id="VnbCdHuQudfma">
      <path fill="#fff" transform="translate(4 9)" d="M0 0h16v6H0z"/>
    </clipPath>
  </defs>
</svg>
