<svg xmlns="http://www.w3.org/2000/svg" viewBox="0 0 100 100" preserveAspectRatio="xMidYMid" style="background-position-x:0;background-position-y:0;background-size:auto;background-origin:padding-box;background-clip:border-box;background:0 0;width:261px;height:261px;animation:none" shape-rendering="auto" display="block">
  <rect fill="#fff" height="10" width="10" ry="5" rx="5" y="24" x="45" opacity=".1" style="animation:none"/>
  <rect fill="#fff" height="10" width="10" ry="5" rx="5" y="24" x="45" opacity=".2" style="animation:none" transform="rotate(36 50 50)"/>
  <rect fill="#fff" height="10" width="10" ry="5" rx="5" y="24" x="45" opacity=".3" style="animation:none" transform="rotate(72 50 50)"/>
  <rect fill="#fff" height="10" width="10" ry="5" rx="5" y="24" x="45" opacity=".4" style="animation:none" transform="rotate(108 50 50)"/>
  <rect fill="#fff" height="10" width="10" ry="5" rx="5" y="24" x="45" opacity=".5" style="animation:none" transform="rotate(144 50 50)"/>
  <rect fill="#fff" height="10" width="10" ry="5" rx="5" y="24" x="45" opacity=".6" style="animation:none" transform="rotate(180 50 50)"/>
  <rect fill="#fff" height="10" width="10" ry="5" rx="5" y="24" x="45" opacity=".7" style="animation:none" transform="rotate(-144 50 50)"/>
  <rect fill="#fff" height="10" width="10" ry="5" rx="5" y="24" x="45" opacity=".8" style="animation:none" transform="rotate(-108 50 50)"/>
  <rect fill="#fff" height="10" width="10" ry="5" rx="5" y="24" x="45" opacity=".9" style="animation:none" transform="rotate(-72 50 50)"/>
  <rect fill="#fff" height="10" width="10" ry="5" rx="5" y="24" x="45" opacity="1" style="animation:none" transform="rotate(-36 50 50)"/>
</svg>
