<svg fill="none" xmlns="http://www.w3.org/2000/svg" viewBox="0 0 24 24">
  <path d="M9 22h6c5 0 7-2 7-7V9c0-5-2-7-7-7H9C4 2 2 4 2 9v6c0 5 2 7 7 7z" stroke="#2DC57B" stroke-linecap="round" stroke-linejoin="round"/>
  <path d="M12.75 5.44c1.622-.463 3.407-.08 4.649 1.161 1.241 1.242 1.624 3.027 1.162 4.649m-4.358-3.777c.579-.115 1.246.085 1.743.581.496.497.696 1.164.58 1.743" stroke="#2DC57B" stroke-linecap="round" stroke-linejoin="round"/>
  <path d="M14.374 18.663c.661.116 1.34.116 2.002 0 1.063-.188 1.919-.901 2.213-1.845l.063-.2c.065-.209.098-.424.098-.64 0-.954-.853-1.728-1.906-1.728h-2.938c-1.053 0-1.906.774-1.906 1.728 0 .216.033.431.098.64l.063.2c.294.944 1.15 1.657 2.213 1.845zm0 0a11.28 11.28 0 01-9.037-9.037m0 0a5.778 5.778 0 010-2.002c.188-1.063.901-1.919 1.845-2.213l.2-.063c.209-.065.424-.098.64-.098.955 0 1.728.853 1.728 1.906v2.938C9.75 11.147 8.977 12 8.022 12c-.216 0-.431-.033-.64-.098l-.2-.063c-.944-.294-1.657-1.15-1.845-2.213z" stroke="#fff"/>
</svg>
