<svg data-name="Layer 1" xmlns="http://www.w3.org/2000/svg" viewBox="0 0 523.91 731.43">
  <defs>
    <linearGradient id="rWVRm8Q-5mmBa" x1="32.24" y1="261.88" x2="412.5" y2="261.88" gradientUnits="userSpaceOnUse">
      <stop offset="0" stop-color="#9c2877"/>
      <stop offset="1" stop-color="#e6c8dd"/>
    </linearGradient>
  </defs>
  <path d="M114.31 730.51c-13-2.33-24.1-10.74-29.85-22.63-3.01-6.38-3.05-6.66-3.85-29.18-.47-8.63-.55-17.28-.24-25.92 1.33-4.75 4.66-8.68 9.12-10.78 2.8-.9 5.73-1.36 8.68-1.35h5.47v24.46c0 14.87.44 26 1.11 28.42 1.43 5.15 8.09 11.77 13.24 13.24 5.11 1.39 32.43 1.39 37.54 0a23.144 23.144 0 0013.24-13.24c.75-2.74 1.11-24.22 1.11-68.3v-64.38l2.26-3.37c3.05-4.6 7.89-6.82 14.79-6.82h5.71v46.78c0 52.72.12 53.87 6.62 60.21 2.06 1.98 4.99 4.08 6.54 4.68 1.59.59 11.18 1.03 22.99 1.03 22 0 24.38-.44 29.41-5.55 5.31-5.31 5.95-7.69 6.54-23.15.59-15.94 1.39-18.35 7.17-21.33 3-1.2 6.17-1.92 9.39-2.14l6.22-.48v17.16c0 9.47.48 18.91 1.03 21.01 2.16 5.6 6.23 10.27 11.5 13.16a29.191 29.191 0 0020.69-1.15c9.12-4.56 11.26-9.67 11.26-27.07 0-10.62.28-12.96 1.94-15.66 2.58-4.24 7.06-6.34 14.67-6.98l6.26-.52-.32 23.63q-.28 23.59-3.05 29.25a40.794 40.794 0 01-19.27 19.3l-7.53 3.73h-13.87c-15.94 0-20.69-1.19-29.41-7.25l-5.31-3.73-4.44 3.25c-9.51 7.06-12.49 7.61-40.16 8.01-20.3.32-26.04.08-31-1.19-2.27-.64-4.57-1.16-6.9-1.59-.4 0-.95 3.92-1.15 8.68a31.22 31.22 0 01-3.41 15.06c-5.83 12.29-17.28 20.77-30.76 22.71-7.93 1.19-35.95 1.15-43.96 0l-.04-.04zm179.14-11.77v-11.89h22.71v7.17c0 11.81-4.6 16.57-16.05 16.57h-6.66v-11.85zm29.65 0v-11.89h23.74v6.18c0 11.97-5.43 17.56-16.97 17.56h-6.78v-11.85zm81.06.59c0-10.7.12-11.61 2.22-13.2 1.19-.95 4.08-3.61 6.34-5.91 7.02-6.98 7.45-9.67 8.17-47.29.52-28.9.79-32.98 2.3-35.28 2.5-3.81 7.14-5.87 14.27-6.46l6.26-.48v39.96c0 43.53-.32 46.62-5.75 56.53-5.71 10.5-19.94 21.41-30.13 23.07l-3.69.59v-11.54zm-29.41-95.41c.24-62.39.28-63.27 2.3-66 3.92-5.27 8.01-7.25 14.9-7.25h6.26v136.4h-23.78l.32-63.15zM234.1 583.05c0-12.29 5.11-17.52 17.05-17.56h6.66v24.74H234.1v-7.17zm29.65.99c.04-12.65 5.51-18.55 17.16-18.55h6.54v24.74h-23.63l-.08-6.18z" fill="#343435" data-name="SVGRepo iconCarrier"/>
  <path d="M411.81 242.34c-8.99-87.13-76.29-156.88-163.04-168.99a235.45 235.45 0 00-51.73-.12c-31.8 4.32-62 16.61-87.78 35.72C24.78 171.58 7.08 290.83 69.71 375.29a237.159 237.159 0 0032.11 33.58 195.11 195.11 0 00108.26 42.89v.04c13.84.38 27.68-.27 41.42-1.94a191.084 191.084 0 00104.53-52.56 191.774 191.774 0 0054.31-104.53c2.25-16.71 2.75-33.61 1.47-50.42zM248.73 405.58c-79.47 0-143.9-64.42-143.9-143.9s64.43-143.89 143.9-143.89 143.9 64.42 143.9 143.9-64.42 143.9-143.9 143.9z" fill="url(#rWVRm8Q-5mmBa)"/>
  <path d="M522.13 225.69a266.859 266.859 0 00-50.38-121.78c-10.07-13.44-31.59-35.72-44.67-46.3-36.92-29.73-79.13-48.08-128.05-55.73-16.33-2.54-57.95-2.5-74.64.08-15.06 2.34-35.64 7.37-48.76 11.97C89.73 43.9 23.69 118.78 5.57 206.74c-5.71 27.63-7.17 62.75-3.73 88.48a261.089 261.089 0 0075.87 152.93 245.837 245.837 0 0066.6 47.81 252.402 252.402 0 00101.16 27.51c4.67.23 9.33.54 13.99.91 2.22.59 35.68-2.22 45.43-3.81 113.33-18.63 200.18-107.78 217.23-222.94 2.38-16.09 2.38-56.49 0-71.95zM385.21 369.94a196.688 196.688 0 01-142.03 86.38 197.357 197.357 0 01-104.14-17.84A196.646 196.646 0 0131.1 301.72a196.648 196.648 0 0136.43-159.24 259.886 259.886 0 0133.3-33.62 208.511 208.511 0 0134.57-22.04c88.32-44.04 194.75-15.54 250.13 66.99 9.27 14.74 16.9 30.46 22.75 46.86 18.7 56.97 10.2 119.38-23.07 169.27z" fill="#9b2776"/>
</svg>
