<svg data-name="Layer 1" xmlns="http://www.w3.org/2000/svg" viewBox="0 0 426.09 162.26">
  <path d="M370.05 55.5c1.02-3.64 14.95-2.74 18.49-2.49 20.28 1.46 36.28 11.67 37.51 33.51 1.22 21.69-19.43 38.8-40.28 30.26-2.77-1.13-6.75-5.07-9.16-4.84-.86.08-8.29 5.21-10.87 6.23-15.5 6.16-36.34 3.97-47.66-9.18-9.49 15.28-35.4 15.25-49.46 6.01-9.01 18.24-29.45 28.56-49.56 24.99v-17.5c0-1.38 16.42-3.68 19.7-5.3 9.54-4.7 14.44-18.72 15.28-28.72.47-5.67-1.17-31.82.99-34.01 2.41-2.43 17.57-2.84 19.5 1.55 2.67 6.06-1.06 25.61.95 34.05 2.99 12.52 24.2 13.29 30.78 1.64 5.26-9.31.82-34.26 3.76-37.24 2.25-2.27 16.82-2.4 18.54.51s-.12 24.3.75 30.25c2.67 18.34 29.57 18.88 37.17 5.69 1.1-1.91 3.57-8.65 3.57-10.43 0-5.37-1.07-21.18 0-25zm24.78 18.69c-1.76.21-3.76.92-4.58 2.51-.7 1.35-2.37 14.82-2.29 16.82.24 6.58 11.5 6.84 15.58 1.46 5.77-7.62 1.28-21.99-8.7-20.79zM18.55 92c2.19.66 3.67 14.24 5.02 17.98 14.58 40.49 73.29 43.15 91.49 3.53 8.61-18.74 3.5-37.75 4.47-57.53 2.29-4.64 15.86-2.89 20.08-1.05.47 27.09 4.28 53.81-11.75 77.38-28.15 41.39-93.66 39.34-118.18-4.45-3.43-6.12-11.9-28.04-9.14-33.84.22-.46 1.84-2.02 2-2.02 3.5 0 13.62-.72 16 0zm158.5 9c18.95-5.54 33.1-18.22 37.76-37.74 1.52-6.35-2.22-9.39 6.75-10.25 17.18-1.65 16.01 3.33 11.98 17.98-5.5 19.95-19.17 35.7-38.13 43.87-3.67 1.58-16.58 6.14-19.86 6.14h-17c-.11 0-1.5-1.39-1.5-1.5V1.5c0-.11 1.39-1.5 1.5-1.5h17c.11 0 1.5 1.39 1.5 1.5V101z"/>
  <path d="M68.81 69.18c14.51-1.96 17.13 21.39 2.64 22.81s-17.14-20.85-2.64-22.81zm211.99 71.04c14.77-2.43 17.45 18.82 5.54 21.57-17.72 4.09-18.83-19.38-5.54-21.57zM260.76 21.21c16.86-3.82 19.37 22.42 2.78 21.88-14.26-.46-13.21-19.52-2.78-21.88zM188.8 140.22c16.91-2.78 17.95 24.4-.18 21.72-11.72-1.73-11.52-19.8.18-21.72z"/>
  <path d="M303.79 140.21c14.89-2.85 18.17 18.99 5.53 21.56-16.55 3.36-18.81-19.02-5.53-21.56z"/>
</svg>
