<svg fill="none" xmlns="http://www.w3.org/2000/svg" viewBox="0 0 15 15">
  <path d="M1.318 1.915C2.168 1.016 3.298.52 4.498.52H4.5a4.337 4.337 0 012.99 1.205c1.773-1.665 4.496-1.603 6.193.19 1.757 1.856 1.757 4.877 0 6.733l-.003.003-4.764 4.884c-.383.393-.888.61-1.422.61H7.49a1.98 1.98 0 01-1.423-.612L1.32 8.651l-.002-.003c-1.757-1.856-1.757-4.877 0-6.733zm.381 6.328l4.746 4.88a1.438 1.438 0 002.093.002l4.763-4.882c1.545-1.634 1.544-4.291-.001-5.924a3.828 3.828 0 00-5.603-.013l-.125.028a.26.26 0 01-.377.065A.296.296 0 017.133 2v.156A3.816 3.816 0 004.5 1.093h-.002c-1.056 0-2.05.435-2.798 1.226A4.285 4.285 0 00.54 5.282c0 1.118.412 2.17 1.16 2.961z" fill="#2DC57B"/>
  <path d="M12.778 2.5L5.68 10M7.1 2.5L2.84 7" stroke="#fff" stroke-width=".6" stroke-linecap="round"/>
</svg>
