<svg fill="none" xmlns="http://www.w3.org/2000/svg" viewBox="0 0 164 180">
  <path d="M82.81 85.262l-.001.007a12.185 12.185 0 01-4.329 6.588 12.148 12.148 0 01-7.447 2.552H60.457l15.299-58.891 20.01-.016-12.956 49.76zm-26.497 26.983a13.004 13.004 0 019.2-3.817c3.45 0 6.76 1.373 9.201 3.817a13.046 13.046 0 013.813 9.219c0 3.459-1.372 6.775-3.813 9.219a13.004 13.004 0 01-9.2 3.817c-3.45 0-6.76-1.373-9.201-3.817a13.046 13.046 0 01-3.813-9.219c0-3.459 1.372-6.775 3.813-9.219z" stroke="#fff" stroke-width="5"/>
  <g filter="url(#MRyLyo3P_-Psa)">
    <path d="M53 155h42c35 0 49-14 49-49V64c0-35-14-49-49-49H53C18 15 4 29 4 64v42c0 35 14 49 49 49z" stroke="#2DC57B" stroke-width="8" stroke-linecap="round" stroke-linejoin="round" shape-rendering="crispEdges"/>
  </g>
  <defs>
    <filter id="MRyLyo3P_-Psa" x="-16" y="0" width="180" height="180" filterUnits="userSpaceOnUse" color-interpolation-filters="sRGB">
      <feFlood flood-opacity="0" result="BackgroundImageFix"/>
      <feColorMatrix in="SourceAlpha" type="matrix" values="0 0 0 0 0 0 0 0 0 0 0 0 0 0 0 0 0 0 127 0" result="hardAlpha"/>
      <feOffset dy="5"/>
      <feGaussianBlur stdDeviation="8"/>
      <feComposite in2="hardAlpha" operator="out"/>
      <feColorMatrix type="matrix" values="0 0 0 0 0.368627 0 0 0 0 0.835294 0 0 0 0 0.658824 0 0 0 0.25 0"/>
      <feBlend mode="normal" in2="BackgroundImageFix" result="effect1_dropShadow_12_24"/>
      <feBlend mode="normal" in="SourceGraphic" in2="effect1_dropShadow_12_24" result="shape"/>
    </filter>
  </defs>
</svg>
