<svg fill="none" xmlns="http://www.w3.org/2000/svg" viewBox="0 0 130 130">
  <g clip-path="url(#zAjKLp_4sTZpa)">
    <path d="M71.926 115.503c-1.204.98-2.413 1.749-3.63 2.33-.827.088-1.659.153-2.495.202v-9.699c-2-1.637-4.012-3.338-6.03-5.085v14.786a55.142 55.142 0 01-2.494-.204c-1.217-.581-2.428-1.351-3.631-2.33-3.922-3.192-7.593-8.581-10.408-15.516h12.818a326.95 326.95 0 01-6.558-6.03H41.13c-1-3.324-1.804-6.908-2.417-10.668a343.514 343.514 0 01-6.94-7.398c.505 6.419 1.54 12.508 3.08 18.066H19.45a50.577 50.577 0 01-7.493-23.731h14.787a279.279 279.279 0 01-5.082-6.03h-9.705a50.913 50.913 0 011.696-10.325 195.953 195.953 0 01-5.738-8.24A58.772 58.772 0 003.82 67.212c.002 32.567 26.397 58.96 58.964 58.962a58.778 58.778 0 0021.577-4.093 204.913 204.913 0 01-11.041-7.83 23.04 23.04 0 01-1.394 1.252zm-45.15-12.282a51.319 51.319 0 01-2.954-3.234H36.81c.968 2.639 2.032 5.151 3.223 7.46 1.404 2.713 2.958 5.18 4.656 7.367a50.977 50.977 0 01-17.914-11.593zm-6.859-76.473a124.27 124.27 0 004.364 7.185c.805-.934 1.621-1.857 2.495-2.73A50.984 50.984 0 0144.729 19.59c-3.158 4.056-5.814 9.087-7.928 14.843H24.6a172.552 172.552 0 004.157 6.03h6.112a89.15 89.15 0 00-1.463 6.21 250.418 250.418 0 005.065 6.293c.634-4.433 1.525-8.644 2.687-12.503H59.77v23.73H48.314a308.178 308.178 0 005.725 6.031h5.731v5.733a307.549 307.549 0 006.031 5.724V70.225h22.28c-.247 8.657-1.56 16.737-3.666 23.732H80a224.947 224.947 0 008.555 6.57c.069-.185.149-.354.218-.54h12.977a51.685 51.685 0 01-2.954 3.233c-.872.871-1.787 1.7-2.72 2.505 2.47 1.609 4.869 3.07 7.17 4.358 11.388-10.75 18.506-25.975 18.506-42.871-.003-32.566-26.4-58.963-58.968-58.965-16.896.002-32.117 7.118-42.867 18.502zm86.205 67.209h-15.42c1.99-7.175 3.196-15.204 3.43-23.731h19.483a50.593 50.593 0 01-7.493 23.731zm-.004-53.493a50.59 50.59 0 017.496 23.731H94.112c-.236-8.52-1.406-16.56-3.396-23.731h15.402zm-7.325-9.261a51.023 51.023 0 012.953 3.23H88.761c-.968-2.636-2.034-5.148-3.224-7.457-1.403-2.71-2.958-5.178-4.654-7.367a50.998 50.998 0 0117.91 11.593zM65.801 16.386c.838.05 1.67.115 2.497.204 1.217.579 2.424 1.349 3.627 2.328 3.923 3.19 7.592 8.58 10.407 15.516H65.8V16.386zm0 24.078H84.44c2.106 6.992 3.412 15.082 3.66 23.731H65.8V40.464zM53.646 18.918c1.203-.98 2.41-1.75 3.628-2.33a54.723 54.723 0 012.496-.204v18.05H43.271c.665-1.643 1.364-3.23 2.12-4.69 2.423-4.696 5.273-8.39 8.255-10.826z" fill="#fff"/>
    <path d="M127.729 107.719c-1.221-3.292-2.917-6.851-4.994-10.624a67.353 67.353 0 01-4.819 8.141 60.173 60.173 0 012.273 5.275c1.227 3.288 1.78 6.03 1.77 7.864 0 .869-.115 1.523-.267 1.963-.153.442-.314.671-.498.862-.187.18-.415.339-.858.494-.438.149-1.091.265-1.961.265-1.732.008-4.276-.481-7.32-1.57-3.051-1.082-6.61-2.737-10.514-4.908-13.386-7.44-30.773-20.95-47.916-38.104C35.47 60.234 21.961 42.847 14.52 29.459c-2.171-3.904-3.824-7.462-4.908-10.512-1.087-3.045-1.578-5.589-1.57-7.32 0-.872.118-1.526.267-1.961.153-.444.312-.67.494-.858.193-.187.42-.348.864-.5.438-.15 1.091-.268 1.965-.268 1.832-.01 4.574.544 7.856 1.767 1.636.605 3.41 1.37 5.299 2.281a67.178 67.178 0 018.136-4.819c-3.78-2.083-7.347-3.781-10.645-5.002C18.417.847 14.914.011 11.631 0c-1.56.002-3.084.198-4.544.691-1.457.49-2.847 1.303-3.972 2.434C1.99 4.245 1.178 5.634.691 7.088.198 8.547.002 10.068 0 11.627c.01 3.102.758 6.397 2.036 10.011 1.283 3.61 3.123 7.529 5.457 11.73C15.49 47.719 29.357 65.47 46.94 83.062c17.59 17.583 35.343 31.45 49.692 39.447 4.203 2.334 8.121 4.173 11.731 5.457 3.614 1.276 6.91 2.024 10.012 2.034 1.558 0 3.08-.198 4.538-.689 1.453-.488 2.841-1.297 3.964-2.424 1.131-1.127 1.943-2.517 2.432-3.97.493-1.46.689-2.983.691-4.542-.012-3.286-.848-6.792-2.271-10.656z" fill="#2DC57B"/>
  </g>
  <defs>
    <clipPath id="zAjKLp_4sTZpa">
      <path fill="#fff" d="M0 0h130v130H0z"/>
    </clipPath>
  </defs>
</svg>
