<svg fill="none" xmlns="http://www.w3.org/2000/svg" viewBox="0 0 24 24">
  <path d="M9 22h6c5 0 7-2 7-7V9c0-5-2-7-7-7H9C4 2 2 4 2 9v6c0 5 2 7 7 7z" stroke="#2DC57B" stroke-linecap="round" stroke-linejoin="round"/>
  <path d="M6.005 8.95c-.054 1.43.308 3.861 2.746 6.3a10.613 10.613 0 001.749 1.424M7.153 6.703c1.045-1.045 2.712-.904 3.375.284l.487.872c.44.787.263 1.82-.429 2.512 0 0-.84.84.682 2.36 1.521 1.522 2.361.683 2.361.683.692-.692 1.725-.868 2.512-.429l.872.487c1.188.663 1.329 2.33.284 3.375-.628.627-1.397 1.116-2.247 1.148a7.345 7.345 0 01-2.3-.287" stroke="#fff" stroke-linecap="round"/>
</svg>
