<svg fill="none" xmlns="http://www.w3.org/2000/svg" viewBox="0 0 24 24">
  <path d="M9 22h6c5 0 7-2 7-7V9c0-5-2-7-7-7H9C4 2 2 4 2 9v6c0 5 2 7 7 7z" stroke="#2DC57B" stroke-linecap="round" stroke-linejoin="round"/>
  <path d="M14.25 6v.75c0 1.414 0 2.121.44 2.56.439.44 1.146.44 2.56.44h1.125m0 0L16.5 8.25m1.875 1.5l-1.875 1.5" stroke="#2DC57B" stroke-width=".9" stroke-linecap="round" stroke-linejoin="round"/>
  <path d="M10.528 6.987l.487.872c.44.787.263 1.82-.429 2.512 0 0-.84.84.682 2.36 1.521 1.522 2.361.683 2.361.683.692-.692 1.725-.868 2.512-.429l.872.487c1.188.663 1.329 2.33.284 3.375-.628.627-1.397 1.116-2.247 1.148-1.43.054-3.861-.308-6.3-2.746-2.437-2.438-2.8-4.868-2.745-6.3.032-.85.52-1.618 1.148-2.246 1.045-1.045 2.712-.904 3.375.284z" stroke="#fff" stroke-width=".9" stroke-linecap="round"/>
</svg>
