<svg fill="none" xmlns="http://www.w3.org/2000/svg" viewBox="0 0 20 20">
  <g clip-path="url(#3Jnhlxp7Oh1Ga)" stroke-width=".7">
    <path d="M10 1.042A8.958 8.958 0 001.042 10c0 2.288.864 4.368 2.275 5.952-.404 1.167-1.247 1.53-2.275 1.903.942.909 2.778 1.15 4.426-.137A8.903 8.903 0 0010 18.958a8.958 8.958 0 000-17.916z" stroke="#2DC57B" stroke-linecap="round" stroke-linejoin="round"/>
    <path d="M14.396 8.287h0c-.67 0-1.213.543-1.213 1.212v.788c0 .67.543 1.212 1.212 1.212h0c.67 0 1.213-.543 1.213-1.212V9.5c0-.67-.543-1.212-1.213-1.212zM7.05 9.5a1.212 1.212 0 012.423 0v2M7.05 8.287V11.5m2.423-2a1.212 1.212 0 012.425 0v2" stroke="#fff" stroke-linecap="round" stroke-linejoin="round"/>
    <path d="M5.65 6.5a.15.15 0 11-.3 0 .15.15 0 01.3 0z" fill="#fff" stroke="#fff"/>
    <path d="M5.65 8.287V11.5" stroke="#fff" stroke-linecap="round" stroke-linejoin="round"/>
  </g>
  <defs>
    <clipPath id="3Jnhlxp7Oh1Ga">
      <path fill="#fff" d="M0 0h20v20H0z"/>
    </clipPath>
  </defs>
</svg>
