<svg fill="none" xmlns="http://www.w3.org/2000/svg" viewBox="0 0 24 24">
  <g clip-path="url(#v7MXRcoqyQIda)">
    <path d="M20.5 4c-1.834-2.142-5.46-2-8.5-2-2.798 0-6.685.149-8.5 2C1.732 5.804 2 9.275 2 12c0 2.797.149 6.685 2 8.5 1.804 1.768 5.274 1.5 8 1.5 2.536 0 6.237.056 8-1.5 2.076-1.832 2-5.513 2-8.5 0-2.482-.004-6.252-1.5-8z" fill="#D80027"/>
    <path d="M14.24 9.482l1.234 1.702 2-.648-1.237 1.7 1.235 1.701-2-.65-1.236 1.7.002-2.103-2-.65 2-.65.002-2.102z" fill="#F0F0F0"/>
    <path d="M10.87 16.487a4.253 4.253 0 112.023-7.994 5.234 5.234 0 100 7.483 4.233 4.233 0 01-2.023.511z" fill="#F0F0F0"/>
  </g>
  <path d="M9 22h6c5 0 7-2 7-7V9c0-5-2-7-7-7H9C4 2 2 4 2 9v6c0 5 2 7 7 7z" stroke="#2DC57B" stroke-linecap="round" stroke-linejoin="round"/>
  <defs>
    <clipPath id="v7MXRcoqyQIda">
      <path fill="#fff" transform="translate(2 2)" d="M0 0h20v20H0z"/>
    </clipPath>
  </defs>
</svg>
