<svg data-name="Layer 1" xmlns="http://www.w3.org/2000/svg" viewBox="0 0 715.83 758.36">
  <path d="M228.63 524.93c-8.23 3.3-16.33 6.83-24.47 10.33-.33 43.33.2 86.6-.27 129.9.17 9.67-2.2 20.97-11.63 25.77-22.43 11.6-45.77 21.33-68.17 33.03-8.83 3.93-18.43 10.5-28.43 6.73a20.688 20.688 0 01-8.07-13.7 27.756 27.756 0 0115.8-20.67c24.67-12.33 50.3-22.6 74.67-35.53.47-9.52-.04-19.05-1.5-28.47-26.47 10.67-52.2 23.5-77.1 37.53-26.13 13.33-33.07 50.33-18.83 74.57 7.73 10.5 21.8 11.77 33.77 10.43 11.93.43 21.1-8.23 31.33-12.93 19.27-8.8 38.77-17.33 57.47-27.23 20-12.23 26.2-37.33 26.13-59.33-.13-43.47 0-86.93-.67-130.43h-.03zm283.6.16a282.91 282.91 0 00-24.33 10.53c-1.53 53.23-.67 106.53-.47 159.83a141.49 141.49 0 0025.17-11.33c-.5-53 .23-106-.33-159l-.03-.03zm-145.67.2c-8.4 2.9-16.4 6.67-24.37 10.67.1 53.3-.47 106.63.17 159.93 8.37-3.43 16.57-7.27 24.57-11.53-.2-53 .5-106.03-.33-159.07h-.03zm212.84.1c-2.6 9.33-4.23 18.93-5.07 28.6-18.87 17.4-36.23 38.23-43 63.5-2.23 10-2.67 22.77 6.4 29.67 8.33 6.63 19.57 6.23 29.37 3.5 2.6 4.43 5.33 8.8 8.27 13.1-47.43 22.4-94.9 44.8-142.13 67.6-.33 9-.37 18-.2 27 70.93-32.23 141-66.4 211.9-98.73.88-12.19.97-24.43.27-36.63-15.77 7.2-30.87 15.77-46.73 22.73-4.58 2.42-9.99 2.7-14.8.77 15.23-15.27 41.1-17.17 52.67-36.57 4.23-12.67 5.8-29.77-5.67-39.2-16.67-15.5-31.43-33.83-51.27-45.33zm15.43 47c8.63 7.6 17.13 15.4 24.7 24.07-10.1 6.4-20.5 12.33-31.07 17.9 1.43-14.07 3.9-28 6.33-41.93l.03-.03zm-18.3 14.57c-1.13 11.8-3.43 23.43-5.57 35.07-8.23 3.2-16.73 5.87-25.67 5.63 5.5-16.67 18.67-29.13 31.23-40.7zm-303.3 10.27c-3.57.03-7.17.67-10.77 1.9-22.97 10.6-29.1 40.93-21.8 63.2 2.34 8.32 10.84 13.29 19.23 11.27 19.23-4.47 35.77-16.27 54.93-21.13 1.6 2.97 3.2 6 4.67 9.07a78.152 78.152 0 01-14.57 9.1c-26.5 12.13-53.13 24.17-79.2 37.23-.03 9.23-.07 18.5.4 27.73 26.57-11.1 52.17-24.17 78.5-35.7 9.7-4.67 21.53-8.6 25.9-19.5 8-21.7.57-47.13-16.27-62.6-10.8-10.6-25.57-20.73-41-20.57h-.03zm144.5 10.13c-2.8 9.17-3.57 18.67-4.9 28.07-20.1 20.9-42.6 44.5-44.5 75.07-1.8 16.07 15.8 28.07 30.53 24 18.67-5.63 35.93-14.83 53.2-23.67 10-5.37 21.8-11.5 24.47-23.67 1.27-11.4 3.2-25.27-6.87-33.4-16.67-16-32.07-34.2-51.93-46.4zm-140.2 17.63c5.13.17 10.23 3 15 4.77a280.772 280.772 0 01-36.6 16.37c2.13-8.27 6.23-16.97 15.17-19.6 1.96-1.1 4.19-1.63 6.43-1.53zm154.27 27.5c8.97 8.43 17.9 16.93 26.3 25.93-19.07 12.13-38.93 23.43-60.67 30.03-4.57 1.87-9.43.9-14-.3 10.53-22.83 31.57-37.83 48.37-55.67z" fill="#2a2627" data-name="SVGRepo iconCarrier"/>
  <path d="M126.09 351.36c1.04 5.77-4.38 9.1-8.22 12.07-36.53 15.6-105.46 76.51-32.2 95.04 105.11 19.15 212.43-8.91 313.29-37.15 84.43-28.8 180.9-55.5 240.67-125.64 28.79-53.13-61.33-51.57-92.81-54.21 22.98-14.8 154.3-7.01 156.26 31.38C697 380.27 357.1 468.56 262.4 485.4 214.81 496.18-57 535.39 10.79 430.1c30.43-35.97 73.61-58.35 115.3-78.74z" fill="#58c7d1"/>
  <path d="M126.09 351.36C258.8 196.29 432.79 69.62 627.65 5.8 848.34-42.25 593.37 223 526.52 256.9 886.61-80.03 436.29 82.03 296.2 223.58 168.56 315.3 57.77 500.01 315.65 384.54c3.47-4 19.96-6.48 9.36 1.23-69.78 42.56-296.03 126.39-198.92-34.41z" fill="#faa921"/>
</svg>
