<svg fill="none" xmlns="http://www.w3.org/2000/svg" viewBox="0 0 24 24">
  <path d="M14 18.923c0 .816-.147 1.599-.41 2.176-.261.577-.616.901-.987.901l-7.746-.5c-.37 0-1.452-.923-1.714-1.5S2 17.816 2 17l.5-11c0-.816.38-1.423.643-2 .262-.577 1.915-1.5 2.286-1.5l7.174-.5c.37 0 .726.324.988.901S14 4.261 14 5.077v13.846z" fill="#141414"/>
  <path d="M20 2.901c.53 0 1.125.522 1.5 1.099s.5.684.5 1.5l.5 11c0 .816-.625 2.423-1 3s-1.47 2-2 2l-3 .5V2l3.5.901z" fill="#007A36"/>
  <path d="M7.5 2h9v19.5h-9V2z" fill="#D32011"/>
  <path d="M15.036 16.088c-.024.06-.106.113-.17.087-.065-.025-.087-.12-.063-.18.024-.06.208-.24.227-.232.02.008.03.265.006.325zm.046.056c-.064.01-.134.078-.123.147.011.068.098.112.163.101.063-.01.279-.15.276-.17-.004-.021-.252-.088-.316-.078zm.264-.3c-.023.055-.098.104-.158.081-.059-.023-.08-.112-.058-.168.022-.056.193-.222.21-.215.019.007.028.246.006.301zm.042.052c-.06.01-.125.072-.114.136.01.064.091.104.15.094.06-.01.26-.14.256-.159-.003-.02-.233-.08-.292-.071zm-1.373.403c-.015.077-.098.16-.18.144-.082-.015-.132-.121-.118-.198.014-.076.188-.331.213-.327.025.005.098.305.085.381zm.066.056c-.072.027-.14.124-.11.202.03.078.143.108.216.081.073-.027.293-.244.284-.268-.009-.023-.317-.042-.39-.015zm.2-.363c-.012.064-.082.133-.15.12-.068-.011-.11-.1-.098-.164.012-.064.157-.277.177-.273.02.004.082.254.07.317zm.055.047c-.061.022-.116.103-.092.168.024.064.119.09.18.067.06-.022.243-.203.236-.222-.007-.019-.264-.035-.324-.013zm.2-.347c-.011.06-.076.123-.14.111-.063-.01-.1-.093-.09-.153.01-.059.145-.255.164-.252.019.004.076.235.065.295zm.05.043c-.055.021-.106.096-.084.156.023.06.11.084.167.063.056-.022.225-.189.22-.207-.007-.018-.246-.033-.302-.012zm.17-.301c-.01.053-.069.11-.126.1-.057-.01-.091-.085-.081-.138.01-.053.13-.232.148-.228.017.003.068.213.059.266zm.046.039c-.05.018-.097.086-.076.14.02.056.1.076.15.057.051-.019.205-.17.2-.187-.007-.016-.223-.029-.274-.01zm-.073 1.316c-.057.052-.173.068-.23.007-.057-.062-.032-.177.025-.229.057-.052.35-.151.367-.134.016.018-.105.303-.162.356zm.02.085c-.075-.022-.186.016-.21.095-.023.08.05.172.124.194.075.022.381-.018.388-.043.008-.023-.227-.224-.302-.246zm.377-.17c-.047.044-.144.057-.191.006-.047-.05-.027-.146.02-.19.048-.044.292-.126.306-.111.014.015-.088.251-.135.295zm.017.07c-.063-.018-.155.014-.174.08-.02.067.04.143.102.162.063.018.317-.016.323-.036.006-.02-.19-.187-.251-.205zm.367-.157c-.044.04-.133.053-.178.005-.043-.047-.024-.135.02-.176.044-.04.27-.117.283-.103.013.014-.08.233-.125.274zm.016.066c-.058-.018-.143.012-.162.073-.018.061.038.133.095.15.058.017.294-.014.3-.033.005-.019-.176-.173-.233-.19zm.316-.14c-.04.037-.121.048-.16.005-.04-.042-.023-.123.016-.16.04-.036.245-.105.256-.093.012.013-.073.211-.112.248zm.014.06c-.052-.017-.13.01-.146.066-.017.055.034.12.086.136.052.015.265-.013.27-.03.005-.017-.158-.157-.21-.173zm.257-2.079c.01.077-.046.18-.129.19-.082.01-.161-.077-.17-.154-.01-.077.08-.373.106-.376.024-.003.183.263.193.34zm.08.033c-.061.047-.096.16-.045.226.051.066.168.06.23.013s.208-.32.193-.34c-.016-.019-.316.054-.378.101zm.083-.405c.007.065-.038.15-.107.159-.07.008-.135-.064-.143-.128-.007-.065.068-.31.089-.313.02-.002.153.218.16.282zm.067.028c-.051.04-.08.133-.038.187.043.055.14.05.191.011.051-.04.173-.266.16-.282-.012-.016-.262.045-.313.084zm.087-.39c.008.059-.035.14-.1.147-.064.007-.124-.06-.131-.12-.008-.059.063-.287.081-.289.02-.002.143.202.15.262zm.063.025c-.048.037-.075.123-.035.174.04.051.13.047.177.01.047-.036.16-.246.149-.261-.012-.015-.244.04-.291.077zm.07-.337c.008.054-.031.126-.09.133-.057.007-.112-.054-.118-.108-.007-.054.057-.26.074-.261.017-.004.129.182.135.236zm.057.023c-.043.033-.067.112-.031.158.035.045.117.042.16.008.043-.033.145-.223.134-.236-.01-.014-.22.036-.263.07zm.321 1.279c-.039.067-.145.117-.217.075-.072-.042-.083-.16-.045-.226.04-.067.29-.249.31-.236.022.012-.009.32-.048.387zm.044.075c-.078 0-.174.07-.172.153.001.083.098.15.175.148.078 0 .359-.13.358-.156 0-.024-.283-.146-.361-.145zm.31-.274c-.033.056-.121.097-.181.062-.06-.034-.07-.132-.037-.188.032-.056.24-.207.259-.197.018.011-.009.267-.042.323zm.036.062c-.064.001-.144.059-.143.128 0 .069.082.124.146.123.065 0 .298-.108.298-.13 0-.02-.236-.121-.3-.12zm.305-.26c-.03.053-.113.09-.168.059-.056-.033-.064-.123-.034-.175.03-.051.223-.191.24-.182.017.01-.008.247-.038.299zm.034.059c-.06 0-.133.053-.133.118.001.064.076.115.136.115.06-.001.276-.102.276-.12 0-.019-.219-.114-.279-.114zm.26-.227c-.027.047-.1.082-.152.053-.05-.03-.058-.112-.03-.158.026-.046.201-.173.216-.165.016.008-.007.223-.034.27zm.031.053c-.054 0-.12.048-.12.107 0 .058.068.104.123.103.055 0 .25-.091.25-.108 0-.018-.198-.103-.253-.102zm-.788-.417c-.002.078-.072.173-.155.17-.084-.002-.149-.1-.147-.177.001-.077.134-.356.159-.356.025 0 .145.285.143.363zm.075.045c-.068.038-.119.144-.077.217.04.073.157.085.225.046.069-.038.252-.286.24-.308-.012-.022-.32.007-.388.045zm.14-.389c-.001.065-.06.143-.129.142-.07-.002-.124-.083-.122-.148.001-.064.112-.297.133-.296.02 0 .12.238.118.302zm.062.037c-.057.032-.099.12-.065.181s.131.07.188.039c.056-.032.209-.239.198-.257-.009-.019-.264.005-.321.037zm.143-.374c-.002.06-.056.133-.12.132-.064-.002-.114-.077-.113-.137.002-.06.104-.275.123-.275.02 0 .111.22.11.28zm.058.035c-.053.029-.092.11-.06.167.033.056.122.065.174.035.053-.03.195-.221.185-.238-.01-.016-.248.006-.3.036zm-.634-1.281c.03.072.005.187-.071.219-.077.032-.177-.03-.207-.102-.031-.072-.025-.38-.002-.39.023-.01.25.201.28.273zm.086.01c-.046.063-.048.18.019.23.067.05.178.012.224-.051.046-.063.111-.365.092-.38-.02-.015-.288.138-.335.201zm-.032-.412c.025.059.004.155-.06.182-.063.027-.146-.025-.171-.084-.025-.06-.02-.316-.002-.325.02-.008.208.168.233.227zm.072.008c-.038.053-.04.15.016.191.056.041.148.01.186-.042.039-.052.093-.303.076-.316-.016-.011-.24.115-.278.167zm-.023-.399c.023.056.004.144-.055.169-.06.024-.137-.023-.16-.078-.023-.056-.019-.293 0-.301.017-.007.191.155.215.21zm.066.008c-.035.048-.037.138.015.177.051.038.138.008.173-.04.035-.048.085-.28.07-.292-.015-.012-.222.107-.258.155zm-.024-.345c.02.05.003.13-.05.152-.053.023-.123-.02-.145-.07-.02-.05-.017-.265 0-.272.016-.007.174.14.195.19zm.06.007c-.032.043-.033.126.014.16.047.035.124.009.157-.035.032-.043.078-.254.063-.264-.014-.012-.201.095-.234.139zm.661 1.14c-.019.076-.108.153-.188.133-.08-.02-.124-.13-.104-.206.018-.075.209-.319.233-.313.024.007.078.311.06.387zm.063.06c-.074.023-.147.116-.123.196.024.08.136.117.21.094.074-.022.308-.225.3-.248-.005-.025-.312-.064-.387-.041zm.223-.348c-.016.063-.09.127-.157.11-.067-.016-.103-.108-.087-.17.016-.064.174-.266.194-.261.02.005.065.258.05.321zm.052.05c-.063.018-.123.095-.102.162.02.066.112.097.174.078.063-.018.257-.186.25-.207-.005-.02-.26-.052-.322-.034zm.22-.333c-.013.058-.082.117-.145.102-.062-.016-.095-.1-.08-.159.014-.058.16-.246.18-.241.018.004.06.239.046.298zm.05.046c-.058.017-.114.088-.095.15.019.061.104.09.162.073.058-.018.238-.173.233-.192-.006-.018-.243-.049-.3-.031zm.188-.29c-.014.052-.075.106-.131.092-.057-.014-.087-.09-.073-.143.013-.053.146-.223.163-.218.016.003.054.216.04.269zm.044.042c-.052.016-.103.08-.085.136.016.055.094.081.146.066.052-.016.215-.157.21-.174-.005-.017-.22-.044-.27-.028zm-.873-.182c.02.074-.02.185-.102.206-.08.02-.17-.055-.19-.13-.02-.075.03-.38.054-.386.024-.006.219.234.238.31zm.084.021c-.055.056-.073.171-.014.23.06.058.175.037.23-.018.054-.056.162-.345.144-.362-.017-.018-.305.096-.36.15zm.028-.412c.016.063-.018.153-.085.171-.067.018-.142-.044-.158-.107-.017-.064.025-.317.046-.322.02-.005.18.196.197.258zm.07.018c-.046.047-.062.143-.012.192.05.049.145.031.19-.015.047-.047.136-.287.122-.302-.015-.014-.255.08-.3.126zm.034-.398c.015.058-.016.143-.079.16-.062.016-.13-.043-.147-.101-.015-.058.024-.293.042-.299.02-.004.168.182.184.24zm.065.018c-.042.042-.057.131-.012.176.046.045.135.03.177-.013.042-.043.126-.266.112-.28-.013-.013-.235.074-.277.117zm-1.002-.856c.067.026.126.117.098.19-.029.072-.134.097-.201.07-.068-.026-.268-.23-.259-.252.008-.022.294-.034.362-.008zm.063-.051c.01.071.087.149.164.136.076-.012.124-.11.112-.181-.01-.072-.168-.31-.192-.307-.023.004-.096.28-.084.352zm-.294-.246c.055.021.105.097.081.157-.023.06-.111.081-.167.06-.055-.022-.223-.193-.215-.21.007-.018.245-.03.3-.007zm.052-.042c.01.059.073.123.137.113.063-.01.102-.091.093-.15-.009-.06-.14-.259-.16-.256-.019.003-.08.234-.07.293zm-.28-.245c.052.02.099.091.076.147-.022.055-.103.075-.155.054-.052-.02-.206-.178-.2-.195.007-.016.228-.026.28-.006zm.05-.039c.008.055.067.115.126.105.06-.01.095-.085.087-.14-.01-.055-.13-.24-.148-.237-.019.004-.075.218-.066.272zm-.245-.207c.047.018.089.081.07.131-.02.05-.094.069-.14.05-.047-.019-.188-.161-.182-.176.006-.015.205-.024.252-.005zm.044-.036c.008.05.061.105.115.096.053-.01.086-.078.078-.127-.008-.05-.117-.217-.133-.215-.017.003-.068.197-.06.246zm1.184.304c.038.062.03.17-.035.21-.066.041-.166-.002-.203-.064-.038-.061-.075-.345-.055-.357.02-.012.255.15.293.211zm.08-.002c-.033.063-.02.171.05.207.067.037.164-.013.198-.077.034-.063.052-.35.031-.36-.02-.012-.245.165-.279.23zm-.086-.374c.032.051.026.142-.03.176-.054.034-.137-.002-.169-.053-.031-.051-.062-.288-.045-.298.016-.01.213.123.244.175zm.068-.002c-.028.053-.017.143.04.173s.137-.012.166-.065c.028-.053.043-.291.026-.3-.017-.009-.205.139-.232.192zm-.078-.363c.03.047.024.131-.027.163-.05.031-.128-.002-.156-.05-.03-.047-.058-.266-.043-.276.015-.01.197.115.226.163zm.063-.002c-.027.05-.015.133.037.16.053.028.128-.01.154-.06.026-.05.04-.27.024-.278-.016-.008-.19.128-.215.178zm-.07-.313c.026.043.022.119-.025.147-.046.029-.115-.002-.142-.045-.026-.043-.052-.241-.038-.25.014-.008.179.105.205.148zm.056-.002c-.023.045-.013.12.035.145.048.025.115-.01.138-.054.024-.044.036-.244.022-.251-.014-.008-.17.115-.195.16zm-.687.459c.063.036.109.134.07.202-.038.066-.146.077-.209.04-.063-.035-.231-.266-.22-.287.011-.02.296.009.36.045zm.07-.041c0 .071.064.16.142.159.077-.002.138-.092.137-.164-.002-.072-.122-.332-.146-.332-.022.001-.135.264-.134.337zm-.256-.286c.052.03.09.112.059.168-.032.055-.122.063-.174.034-.052-.03-.193-.222-.183-.24.01-.016.246.008.298.038zm.058-.035c0 .06.054.134.118.132.065 0 .116-.075.114-.135 0-.06-.102-.277-.12-.276-.02 0-.113.22-.112.28zm-.242-.281c.048.028.084.103.054.155-.03.052-.113.06-.16.033-.049-.028-.18-.207-.17-.223.009-.015.228.007.276.035zm.054-.032c.001.055.05.123.11.122.06 0 .107-.07.106-.126 0-.056-.094-.256-.112-.256-.018 0-.104.204-.104.26z" fill="#fff"/>
  <path d="M17.595 15.588s-.537-.006-.996-.316c-.459-.31-1.399-.88-2.151-.141 0 0 .525-.089.92.239.394.329 1.005.713 1.52.67a.873.873 0 00.707-.452z" fill="#fff"/>
  <path d="M8.26 7.392l-.663-.663a6.234 6.234 0 014.437-1.838c1.677 0 3.252.653 4.438 1.838l-.664.663a5.303 5.303 0 00-3.774-1.564A5.305 5.305 0 008.26 7.392z" fill="#FF5B57"/>
  <path d="M9.434 14.602l-.006-.474h5.092l.02.484-5.106-.01zm5.106-4.69l-.427-.053V8.858c0-.023-.008-.043-.013-.064h.02a.12.12 0 00.12-.119.12.12 0 00-.12-.12h-.53a.12.12 0 00-.12.12.12.12 0 00.12.12h.02c-.005.02-.012.04-.012.063v.937l-.196-.024-.389-.417a.694.694 0 00.126-.387c0-.465-.481-.841-1.075-.841s-1.075.376-1.075.841c0 .14.047.269.123.384l-.39.421-.197.024V8.86c0-.023-.008-.043-.013-.064h.02a.12.12 0 00.12-.12.12.12 0 00-.12-.119h-.53a.12.12 0 00-.119.12.12.12 0 00.12.119h.02c-.005.021-.013.041-.013.064v1l-.426.052.354.53h.055v.734h.548v-.733h3.04v.733h.548v-.733h.057l.354-.53z" fill="#fff"/>
  <path d="M13.855 8.469c.202 0 .366-.087.366-.194 0-.059-.052-.11-.13-.146l-.237-.34-.236.34c-.078.035-.13.086-.13.146 0 .107.165.194.367.194zm-1.836-.445c.21 0 .38-.105.38-.234 0-.069-.05-.129-.126-.172l-.254-.364-.253.364c-.077.043-.127.104-.127.172 0 .13.17.234.38.234zm-1.752.445c.202 0 .366-.087.366-.194 0-.059-.052-.11-.13-.146l-.236-.34-.237.34c-.078.035-.13.086-.13.146 0 .107.164.194.367.194zm4.223 5.43l-.36-.39v-.683h-.549v.655h-.22l-1.414-1.957-1.078-.058-.055 1.669 1.417.014.666.332v.418h1.593z" fill="#fff"/>
  <path d="M10.54 12.825h-.547v.716l-.332.357h1.593v-.417h-.714v-.656zM9.062 10.13l-.168.147s-.727.53-.485 1.04c-.135.19-.441.566-.206.948.235.383.459.724.312 1.082.44-.23.64-.653.505-1.13-.113-.399.448-.705.633-.794l.34.511v.471h.547v-.808h-.474L9.062 10.13zm6.65 1.189c.242-.512-.485-1.041-.485-1.041l-.168-.147-1.003 1.467h-.475v.808h.548v-.47l.34-.512c.184.088.745.394.632.795-.135.476.065.9.506 1.13-.147-.36.076-.7.312-1.083.234-.383-.072-.76-.207-.947zm-.958 6.496a.261.261 0 01-.26.26c-.145 0-.968-.116-.968-.26 0-.144.823-.261.967-.261a.26.26 0 01.261.26z" fill="#fff"/>
  <path d="M15.691 17.834c.736-.137.765-.535.765-.535s-.4.254-.87.16c-.47-.093-.895-.078-.895-.078s.448.496.071.743c-.166.11-.628.063-.829.019-.2-.044-.633-.125-.728-.125a.26.26 0 100 .522c.096 0 .524-.08.746-.13.223-.051.38-.075.546-.11.2-.041.619.012 1.142.053.524.042.906-.2 1.082-.411-.371.117-.86-.023-1.03-.108zm3.53-5.926c.03-.071-.642.43-1.1.373-.458-.056-1.339-.181-1.519.161-.18.341-.342.695-.342.695s.305-.178.7-.18c.397-.002 1.23-.04 1.558-.15.33-.11.586-.618.703-.899zm-.634-2.215c-.008-.15-.305-.087-.366-.21-.061-.124.166-.388.04-.477-.125-.089-.764.483-1.12.867-.355.384-.454.996-.34 1.177.114.18.041.016.041.016s.225-.447.586-.629c.36-.181 1.16-.744 1.16-.744zm-9.676 6.395c.024.06.105.113.17.087.064-.025.087-.12.063-.18-.024-.06-.208-.24-.227-.232-.02.008-.03.265-.006.325zm-.045.056c.063.01.134.078.123.147-.012.068-.099.112-.163.101-.065-.01-.279-.15-.276-.17.004-.021.252-.088.316-.078zm-.264-.3c.022.055.098.104.157.081.06-.023.081-.112.059-.168-.023-.056-.193-.222-.211-.215-.018.007-.028.246-.005.301zm-.042.052c.059.01.124.072.114.136-.01.064-.092.104-.151.094-.06-.01-.259-.14-.256-.159.003-.02.233-.08.293-.071zm1.373.403c.014.077.098.16.18.144.082-.015.131-.121.118-.198-.014-.076-.188-.331-.213-.327-.025.005-.1.305-.085.381zm-.067.056c.073.027.14.124.11.202-.029.078-.142.108-.216.081-.072-.027-.293-.244-.284-.268.008-.023.317-.042.39-.015zm-.2-.363c.012.064.082.133.15.12.068-.012.11-.1.097-.164-.01-.064-.156-.277-.177-.273-.02.004-.08.254-.07.317zm-.055.047c.061.022.116.103.092.168-.024.064-.119.09-.18.067-.06-.022-.243-.203-.236-.222.007-.019.263-.035.324-.013zm-.2-.347c.011.06.076.123.14.111.062-.01.1-.093.09-.153-.01-.059-.145-.255-.164-.252-.019.004-.076.235-.065.295zm-.05.043c.056.021.107.096.084.156-.022.06-.11.084-.166.063-.056-.022-.226-.189-.22-.207.008-.018.245-.033.302-.012zm-.169-.301c.01.053.068.11.125.1.057-.01.092-.085.082-.138-.01-.053-.131-.232-.149-.228-.017.003-.068.213-.058.266zm-.047.039c.05.018.097.086.076.14-.02.056-.1.076-.15.057-.052-.019-.205-.17-.2-.187.008-.016.223-.029.274-.01zm.073 1.316c.057.052.173.068.23.007.057-.062.033-.177-.024-.229-.057-.052-.35-.151-.367-.134-.018.02.103.303.161.356zm-.02.085c.075-.022.186.016.21.095.023.08-.05.172-.125.194-.075.022-.38-.018-.387-.043-.007-.024.228-.224.302-.246zm-.377-.17c.048.044.144.057.192.006.047-.05.027-.146-.021-.19-.048-.044-.291-.126-.306-.111-.014.015.087.251.135.295zm-.016.07c.062-.018.154.014.174.08.02.067-.04.143-.103.162-.062.018-.316-.016-.322-.036-.006-.02.189-.187.251-.205zm-.368-.157c.044.04.133.053.177.005.044-.047.025-.135-.019-.176-.044-.04-.27-.117-.283-.103-.013.014.08.233.125.274zm-.015.066c.057-.018.143.012.162.073.018.061-.039.133-.096.15-.057.017-.294-.014-.299-.033-.005-.019.175-.173.233-.19zm-.317-.14c.04.037.121.048.16.005.04-.042.023-.123-.017-.16-.04-.036-.244-.105-.255-.093-.012.013.072.211.112.248zm-.013.06c.051-.017.13.01.146.066.016.055-.035.12-.086.136-.052.015-.266-.013-.271-.03-.005-.017.158-.157.21-.173zm-.258-2.079c-.01.077.046.18.13.19.082.01.16-.077.17-.154.01-.077-.081-.373-.106-.376-.025-.003-.185.263-.194.34zm-.08.033c.062.047.096.16.045.226-.05.066-.168.06-.23.013s-.208-.32-.193-.34c.016-.019.316.054.378.101zm-.083-.405c-.008.065.038.15.107.159.07.008.134-.064.143-.128.007-.065-.069-.31-.089-.313-.02-.002-.153.218-.161.282zm-.067.028c.051.04.08.133.038.187-.043.055-.14.05-.192.011-.05-.04-.172-.266-.16-.282.013-.016.263.045.314.084zm-.088-.39c-.007.059.036.14.1.147.065.007.125-.06.132-.12.008-.059-.063-.287-.082-.289-.018-.002-.142.202-.15.262zm-.061.025c.047.037.074.123.034.174-.039.051-.13.047-.177.01-.047-.036-.16-.246-.148-.261.012-.015.243.04.291.077zm-.072-.337c-.007.054.032.126.09.133.058.007.112-.054.12-.108.006-.054-.058-.26-.075-.261-.017-.004-.128.182-.135.236zm-.056.023c.042.033.066.112.031.158-.035.045-.118.042-.16.008-.043-.033-.145-.223-.135-.236.011-.014.221.036.264.07zm-.32 1.279c.038.067.145.117.217.075.072-.042.082-.16.044-.226-.038-.067-.29-.249-.31-.236-.021.012.01.32.048.387zm-.045.075c.078 0 .173.07.172.153-.002.083-.098.15-.176.148-.078 0-.358-.13-.357-.156 0-.024.283-.146.361-.145zm-.31-.274c.033.056.121.097.181.062.06-.034.07-.132.037-.188-.032-.056-.24-.207-.259-.197-.017.011.01.267.041.323zm-.036.062c.064.001.144.059.143.128 0 .07-.082.124-.146.123-.065 0-.298-.108-.298-.13 0-.02.236-.121.3-.12zm-.305-.26c.03.053.113.09.168.059.056-.033.064-.123.034-.175-.03-.051-.223-.191-.24-.182-.017.01.008.247.038.299zm-.034.059c.06 0 .134.053.133.118 0 .064-.076.115-.136.115-.06-.001-.276-.102-.276-.12 0-.019.22-.114.28-.114zm-.26-.227c.026.047.1.082.152.053.05-.03.057-.112.03-.158-.027-.046-.201-.173-.216-.165-.016.008.006.223.033.27zm-.031.053c.054 0 .12.048.12.107-.001.058-.069.104-.123.103-.055 0-.25-.091-.25-.108 0-.018.199-.103.253-.102zm.788-.417c.001.078.072.173.155.17.083-.002.149-.1.147-.177-.001-.077-.134-.356-.159-.356-.025 0-.145.285-.143.363zm-.074.045c.067.038.118.144.077.217-.041.073-.158.085-.226.046-.067-.038-.251-.286-.239-.308.012-.022.32.007.388.045zm-.14-.389c.001.065.059.143.128.142.07-.002.124-.083.123-.148-.002-.064-.112-.297-.133-.296-.021 0-.12.238-.119.302zm-.063.037c.056.032.098.12.065.181-.034.061-.132.07-.188.039-.056-.033-.209-.239-.199-.257.01-.019.266.005.322.037zm-.142-.374c.001.06.055.133.119.132.064-.002.115-.077.113-.137-.001-.06-.103-.275-.123-.275-.019 0-.11.22-.11.28zm-.058.035c.052.029.091.11.06.167-.033.056-.122.065-.175.035-.052-.029-.194-.221-.184-.238.01-.016.246.006.299.036zm.633-1.281c-.03.072-.005.187.071.219.077.032.176-.03.207-.102s.025-.38.002-.39c-.024-.01-.25.201-.28.273zm-.086.01c.045.063.048.18-.019.23-.068.05-.179.012-.225-.051-.046-.063-.111-.365-.092-.38.02-.015.29.138.336.201zm.032-.412c-.026.059-.005.155.06.182.063.027.146-.025.171-.084.025-.06.02-.316.001-.325-.018-.008-.207.168-.232.227zm-.072.008c.038.053.04.15-.016.191-.056.041-.148.01-.187-.042-.038-.052-.092-.303-.075-.316.016-.012.24.115.278.167zm.024-.399c-.023.056-.005.144.055.169.059.024.136-.023.16-.078.023-.056.018-.293 0-.301-.017-.007-.192.155-.215.21zm-.067.008c.035.048.038.138-.014.177-.052.038-.138.008-.173-.04-.036-.048-.086-.28-.07-.292.014-.012.221.107.257.155zm.024-.345c-.02.05-.004.13.05.152.053.023.123-.02.144-.07.021-.05.018-.265.001-.272-.016-.007-.174.14-.195.19zm-.06.007c.032.043.033.126-.014.16-.047.035-.125.009-.157-.035-.032-.043-.078-.254-.064-.264.015-.012.203.095.234.139zm-.661 1.14c.018.076.108.153.188.133.081-.02.124-.13.104-.206-.019-.075-.209-.319-.233-.313-.024.007-.078.311-.06.387zm-.063.06c.074.023.147.116.123.196-.024.08-.136.117-.21.094-.075-.022-.309-.225-.301-.248.007-.025.313-.064.388-.041zm-.222-.348c.015.063.089.127.156.11.068-.016.103-.108.087-.17-.015-.064-.174-.266-.194-.261-.02.005-.065.258-.05.321zm-.053.05c.062.018.122.095.102.162-.02.066-.112.097-.175.078-.062-.018-.256-.186-.25-.207.006-.02.261-.052.323-.034zm-.221-.333c.014.058.083.117.145.102.063-.016.096-.1.081-.159-.014-.058-.16-.246-.18-.241-.018.004-.06.239-.046.298zm-.049.046c.058.017.113.088.095.15-.019.061-.105.09-.162.073-.058-.018-.238-.173-.233-.192.006-.018.242-.049.3-.031zm-.187-.29c.013.052.075.106.131.092.056-.014.086-.09.073-.143-.014-.053-.147-.223-.163-.218-.017.003-.055.216-.041.269zm-.045.042c.052.016.103.08.086.136-.017.055-.095.081-.146.066-.052-.016-.216-.157-.21-.174.004-.017.218-.044.27-.028zm.873-.182c-.02.074.02.185.102.206.08.02.17-.055.19-.13.02-.075-.03-.38-.055-.386-.024-.007-.217.234-.237.31zm-.084.021c.054.056.073.171.014.23-.06.058-.175.037-.23-.018-.054-.056-.162-.345-.144-.362.018-.018.305.096.36.15zm-.027-.412c-.017.063.018.153.084.171.067.018.142-.044.159-.107.016-.064-.026-.317-.046-.322-.02-.005-.182.196-.197.258zm-.07.018c.045.047.06.143.011.192-.05.049-.145.031-.191-.015-.046-.047-.135-.287-.12-.302.013-.014.254.08.3.126zm-.035-.398c-.015.058.017.143.08.16.061.016.13-.043.146-.101.015-.058-.024-.293-.042-.299-.02-.004-.169.182-.184.24zm-.065.018c.042.042.057.131.011.176-.045.045-.135.03-.177-.013-.042-.043-.125-.266-.111-.28.013-.013.235.074.277.117zm1.003-.856c-.068.026-.127.117-.098.19.028.072.134.097.2.07.067-.026.268-.23.26-.252-.009-.022-.295-.034-.362-.008zm-.063-.051c-.011.071-.088.149-.164.136-.077-.012-.124-.11-.113-.181.011-.072.169-.31.192-.307.023.004.096.28.085.352zm.293-.246c-.055.021-.106.097-.082.157.024.06.112.081.168.06.055-.022.222-.193.215-.21-.007-.018-.245-.03-.3-.007zm-.052-.042c-.01.059-.072.123-.136.113-.064-.01-.103-.091-.094-.15.01-.06.14-.259.16-.256.019.003.08.234.07.293zm.28-.245c-.052.02-.099.091-.076.147.022.055.103.075.155.054.052-.02.206-.178.2-.195-.007-.016-.228-.026-.28-.006zm-.049-.039c-.009.055-.067.115-.126.105-.06-.01-.096-.085-.087-.14.009-.055.13-.24.147-.237.018.004.075.218.066.272zm.244-.207c-.046.018-.088.081-.069.131.02.05.094.069.14.05.047-.019.187-.161.181-.176-.006-.015-.205-.024-.252-.005zm-.044-.036c-.008.05-.062.105-.115.096-.053-.01-.086-.078-.079-.127.008-.05.118-.217.134-.215.017.003.068.197.06.246zm-1.184.304c-.037.062-.03.17.036.21.066.041.165-.002.203-.064.037-.061.075-.345.055-.357-.02-.012-.256.15-.294.211zm-.08-.002c.033.063.019.171-.05.207-.068.037-.164-.013-.198-.077-.034-.063-.052-.35-.032-.36.02-.012.246.165.28.23zm.086-.374c-.032.051-.026.142.029.176s.138-.002.17-.053c.031-.051.062-.288.045-.298-.016-.01-.213.123-.244.175zm-.067-.002c.028.053.016.143-.04.173-.058.03-.138-.012-.166-.065-.028-.053-.043-.291-.027-.3.018-.009.205.139.233.192zm.076-.363c-.029.047-.024.131.027.163.051.031.129-.002.157-.05.03-.047.058-.266.043-.276-.015-.01-.197.115-.227.163zm-.062-.002c.026.05.015.133-.037.16-.053.028-.128-.01-.154-.06-.026-.05-.04-.27-.024-.278.016-.008.19.128.215.178zm.07-.313c-.026.043-.022.119.025.147.046.029.115-.002.141-.045.027-.043.053-.241.039-.25-.014-.008-.179.105-.205.148zm-.056-.002c.023.045.013.12-.035.145-.048.025-.115-.01-.139-.054-.023-.044-.036-.244-.021-.251.014-.008.171.115.195.16zm.687.459c-.063.036-.108.134-.07.202.038.066.147.077.21.04.062-.035.231-.266.219-.287-.011-.02-.296.009-.359.045zm-.07-.041c0 .071-.065.16-.142.159-.077-.002-.139-.092-.137-.164.001-.072.122-.332.145-.332.024.001.136.264.135.337zm.256-.286c-.052.03-.091.112-.059.168.032.055.122.064.174.034.052-.03.193-.222.183-.239-.009-.017-.247.007-.298.037zm-.058-.035c0 .06-.054.134-.119.132-.064 0-.115-.075-.114-.135.001-.06.102-.277.121-.276.019 0 .113.22.112.28zm.241-.281c-.048.028-.084.103-.054.155.03.052.114.06.162.033.048-.028.178-.207.17-.223-.009-.015-.23.007-.278.035zm-.053-.032c0 .055-.05.123-.11.122-.06 0-.107-.07-.106-.126.001-.056.095-.256.113-.256.018 0 .104.204.103.26z" fill="#fff"/>
  <path d="M6.352 15.588s.537-.006.996-.316c.459-.31 1.399-.88 2.15-.141 0 0-.524-.089-.919.239-.394.329-1.005.713-1.52.67a.87.87 0 01-.707-.452zm7.387 1.086s-.9.265-1.765.247c-.865.018-1.765-.247-1.765-.247l-.83.794s.319-.096.847.142c.495.222 1.068.456 1.747.456s1.253-.234 1.747-.456c.53-.239.847-.142.847-.142l-.828-.794z" fill="#fff"/>
  <path d="M9.193 17.815c0 .144.117.26.26.26.145 0 .968-.116.968-.26 0-.144-.823-.261-.967-.261a.261.261 0 00-.261.26z" fill="#fff"/>
  <path d="M8.256 17.834c-.735-.137-.764-.535-.764-.535s.4.254.87.16c.47-.093.895-.078.895-.078s-.448.496-.072.743c.167.11.628.063.829.019.201-.044.634-.125.728-.125a.261.261 0 010 .522c-.096 0-.523-.08-.746-.13-.223-.051-.379-.075-.546-.11-.2-.04-.618.012-1.141.054-.524.04-.906-.2-1.083-.412.37.118.859-.023 1.03-.108zm-3.53-5.926c-.03-.071.642.43 1.1.374.458-.057 1.339-.182 1.519.16.18.341.342.695.342.695s-.305-.177-.7-.18c-.397-.002-1.23-.04-1.558-.15-.329-.11-.586-.618-.703-.899zm.634-2.215c.008-.15.305-.087.366-.21.062-.124-.166-.387-.04-.477.125-.089.764.483 1.12.867.355.384.454.996.34 1.177-.114.18-.041.016-.041.016s-.225-.446-.586-.629c-.36-.181-1.16-.744-1.16-.744zm8.29 5.865c-.147.036-.33.219-.502.474a.476.476 0 00-.473-.446.49.49 0 00-.172.035.34.34 0 00-.278-.15.345.345 0 00-.234.094.345.345 0 00-.234-.094.342.342 0 00-.278.15.469.469 0 00-.508.104.48.48 0 00-.143.334c-.176-.269-.365-.464-.518-.5-.251-.062-.445-.327-.613-.446 0 0 .016.455.468.78.3.217.22.715.22.715s.547.137.795.164c-.038-.11-.087-.21-.133-.312a.46.46 0 00.142.064l.14.26s.32.03.66.03.663-.03.663-.03l.14-.26a.48.48 0 00.113-.043c-.044.095-.089.189-.124.292.246-.027.794-.164.794-.164s-.08-.499.22-.715c.452-.325.469-.78.469-.78-.168.117-.363.382-.614.444z" fill="#fff"/>
  <path d="M9 22h6c5 0 7-2 7-7V9c0-5-2-7-7-7H9C4 2 2 4 2 9v6c0 5 2 7 7 7z" stroke="#2DC57B" stroke-linecap="round" stroke-linejoin="round"/>
</svg>
