<svg fill="none" xmlns="http://www.w3.org/2000/svg" viewBox="0 0 17 21">
  <path d="M11.384 11.661c2.848-1.036 4.886-2.343 2.778-5.037.145-5.43-9-6.466-11.294-.297-.259 1.188-.175 3.751.725 5.808.33.777.073 3.949-1.089 2.515-.547-.741-1.05-.772-1.266-.693-1.043 1.925 1.65 3.563 2.24 3.575 1.47 1.71 2.723 1.496 3.786 1.576" stroke="#2DC57B" stroke-width=".8" stroke-linecap="round" stroke-linejoin="round"/>
  <path d="M12.773 11.086c2.44 3.747 1.195 6.136-1.873 6.916" stroke="#2DC57B" stroke-width=".7" stroke-linecap="round" stroke-linejoin="round"/>
  <path d="M6.015 11.464c.476.445 1.167.358 1.648.027.093-.889.812-.858.935.057.581-.012 1.189-.082 1.303.335.066.446-.31.706-.876.629.027.893-.421.863-1.43.775-.332.147-.635.207-.94.272" stroke="#2DC57B" stroke-width=".4" stroke-linecap="round" stroke-linejoin="round"/>
  <path d="M8.278 9.368c2.441.957 4.632.757 5.936-1.299" stroke="#fff" stroke-width=".5" stroke-linecap="round" stroke-linejoin="round"/>
  <path d="M9.39 8.7c.3 0 .544-.279.544-.623 0-.343-.244-.622-.544-.622-.3 0-.543.279-.543.622 0 .344.243.623.543.623zm3.775-.95c.25 0 .453-.265.453-.592 0-.327-.203-.593-.453-.593s-.453.266-.453.593c0 .327.203.593.453.593z" fill="#fff"/>
  <path d="M7 18.356c3.348 6.684 6.916-8.852.256-3.018m6.754-2.164c5.496-3.416 1.305 6.366-.905 3.94M9.753 2.135C7.749.39 6.463 1.065 5.586 2.95c-3.767-.79-3.658 2.29-2.718 3.379-1.64 1.185-1.996 2.37.06 3.556-.791.368-1.605 1.673.665 2.607-.576.462-1.35.892-.06 1.66" stroke="#2DC57B" stroke-width=".5" stroke-linecap="round" stroke-linejoin="round"/>
  <path d="M15.26 6.667h1.281m-.641-.732v1.424" stroke="#fff" stroke-width=".4" stroke-linecap="round" stroke-linejoin="round"/>
</svg>
