<svg fill="none" xmlns="http://www.w3.org/2000/svg" viewBox="0 0 22 22">
  <path d="M8 21h6c5 0 7-2 7-7V8c0-5-2-7-7-7H8C3 1 1 3 1 8v6c0 5 2 7 7 7z" stroke="#2DC57B" stroke-linecap="round" stroke-linejoin="round"/>
  <path d="M13.157 11.886c2.436-.886 4.18-2.004 2.376-4.308.124-4.644-7.698-5.53-9.66-.253-.221 1.016-.15 3.208.62 4.967.282.664.063 3.377-.93 2.15-.469-.633-.9-.66-1.084-.592-.892 1.646 1.412 3.048 1.916 3.058 1.257 1.462 2.329 1.28 3.238 1.347m4.712-6.86c2.087 3.205 1.022 5.248-1.602 5.915" stroke="#2DC57B" stroke-width=".5" stroke-linecap="round" stroke-linejoin="round"/>
  <path d="M8.564 11.718c.408.38.999.306 1.41.023.08-.76.695-.734.8.049.497-.01 1.017-.07 1.114.286.057.382-.264.604-.748.538.022.764-.361.738-1.224.663-.284.126-.543.177-.804.233" stroke="#2DC57B" stroke-width=".5" stroke-linecap="round" stroke-linejoin="round"/>
  <path d="M10.5 9.926c2.088.818 3.962.646 5.077-1.112m-4.125.538c.256 0 .465-.238.465-.532 0-.294-.209-.532-.465-.532-.257 0-.465.238-.465.532 0 .294.208.532.465.532zm3.228-.811c.214 0 .388-.227.388-.507s-.174-.507-.388-.507c-.214 0-.387.227-.387.507s.173.507.387.507z" stroke="#fff" stroke-width=".4" stroke-linecap="round" stroke-linejoin="round"/>
  <path d="M9.55 17.668c2.864 5.716 5.915-7.57.22-2.58m5.633-1.909c4.7-2.922 1.116 5.445-.775 3.37M11.762 3.738c-1.714-1.491-2.814-.915-3.564.698-3.222-.677-3.129 1.958-2.325 2.889-1.402 1.014-1.707 2.027.052 3.041-.677.315-1.373 1.431.568 2.23-.492.396-1.154.763-.052 1.42" stroke="#2DC57B" stroke-width=".5" stroke-linecap="round" stroke-linejoin="round"/>
  <path d="M16.472 7.614h1.096m-.548-.627v1.219" stroke="#fff" stroke-width=".4" stroke-linecap="round" stroke-linejoin="round"/>
</svg>
