<svg fill="none" xmlns="http://www.w3.org/2000/svg" viewBox="0 0 24 24">
  <path d="M9 22h6c5 0 7-2 7-7V9c0-5-2-7-7-7H9C4 2 2 4 2 9v6c0 5 2 7 7 7z" stroke="#2DC57B" stroke-linecap="round" stroke-linejoin="round"/>
  <path d="M12.667 6.168c1.441-.41 3.028-.07 4.132 1.033 1.103 1.104 1.444 2.69 1.033 4.132m-3.874-3.357c.515-.103 1.108.075 1.55.517.44.441.619 1.034.516 1.55" stroke="#2DC57B" stroke-linecap="round" stroke-linejoin="round"/>
  <path d="M14.11 17.922a5.134 5.134 0 001.78 0c.944-.166 1.705-.8 1.967-1.64l.056-.178c.058-.185.087-.376.087-.568 0-.848-.759-1.536-1.694-1.536h-2.612c-.936 0-1.694.688-1.694 1.536 0 .192.03.383.087.568l.056.178c.262.84 1.023 1.474 1.967 1.64zm0 0A10.027 10.027 0 016.078 9.89m0 0a5.136 5.136 0 010-1.78c.166-.944.8-1.705 1.64-1.967l.178-.056C8.08 6.03 8.272 6 8.464 6 9.312 6 10 6.758 10 7.694v2.612C10 11.242 9.312 12 8.464 12c-.192 0-.383-.03-.568-.087l-.178-.056c-.84-.262-1.474-1.023-1.64-1.967z" stroke="#fff"/>
</svg>
