<svg fill="none" xmlns="http://www.w3.org/2000/svg" viewBox="0 0 24 24">
  <path d="M9 22h6c5 0 7-2 7-7V9c0-5-2-7-7-7H9C4 2 2 4 2 9v6c0 5 2 7 7 7z" stroke="#2DC57B" stroke-linecap="round" stroke-linejoin="round"/>
  <path d="M18.5 11h-2V6.5a.5.5 0 00-.75-.433L13.5 7.375 11 6.057a.5.5 0 00-.473 0l-2.5 1.365-2.277-1.35A.5.5 0 005 6.5v9.75A1.75 1.75 0 006.75 18H17c.03.002.058.002.087 0h.163A1.75 1.75 0 0019 16.25V11.5a.5.5 0 00-.5-.5zM6.75 17a.75.75 0 01-.75-.75V7.382l1.75 1.045a.5.5 0 00.5.013l2.5-1.373 2.512 1.32a.5.5 0 00.483 0l1.75-1v8.863c0 .26.058.516.17.75H6.75zM18 16.25a.75.75 0 11-1.5 0V12H18v4.25z" fill="#fff"/>
  <path d="M13.5 11H8a.5.5 0 000 1h5.5a.5.5 0 000-1zm0 3H8a.5.5 0 000 1h5.5a.5.5 0 000-1z" fill="#2DC57B"/>
</svg>
