<svg xmlns="http://www.w3.org/2000/svg" xmlns:xlink="http://www.w3.org/1999/xlink" data-name="Layer 1" viewBox="0 0 843.27 509.14">
  <defs>
    <linearGradient id="a" x1="637.88" x2="687.6" y1="357.9" y2="357.9" gradientUnits="userSpaceOnUse">
      <stop offset="0" stop-color="#40b776"/>
      <stop offset=".37" stop-color="#3ab276"/>
      <stop offset=".82" stop-color="#2ba676"/>
      <stop offset="1" stop-color="#24a076"/>
    </linearGradient>
    <linearGradient xlink:href="#a" id="c" x1="755.88" x2="805.6" y1="355.9" y2="355.9"/>
    <linearGradient xlink:href="#a" id="d" x1="310.02" x2="384.48" y1="228.45" y2="228.45"/>
    <linearGradient id="e" x1="-237.65" x2="-487.41" y1="74.43" y2="285.78" gradientTransform="matrix(.89974 .02167 -.05497 .87893 449.61 32.05)" gradientUnits="userSpaceOnUse">
      <stop offset="0" stop-color="#40b776"/>
      <stop offset=".5" stop-color="#3db576"/>
      <stop offset=".75" stop-color="#36ae76"/>
      <stop offset=".95" stop-color="#28a376"/>
      <stop offset="1" stop-color="#24a076"/>
    </linearGradient>
    <linearGradient id="b" x1="-.67" x2="156.06" y1="272.12" y2="272.12" gradientTransform="matrix(.99983 -.01867 -.02774 1.0307 5.9 55.74)" gradientUnits="userSpaceOnUse">
      <stop offset="0" stop-color="#40b776"/>
      <stop offset="1" stop-color="#24a076"/>
    </linearGradient>
    <linearGradient xlink:href="#a" id="f" x1="161.18" x2="213.88" y1="919.39" y2="950.02" gradientTransform="rotate(9.03 3973.31 693.691)"/>
    <linearGradient xlink:href="#b" id="g" x1="191.25" x2="121.33" y1="466.52" y2="476.2"/>
    <linearGradient xlink:href="#a" id="h" x1="117.38" x2="190.65" y1="472.07" y2="472.07"/>
  </defs>
  <path fill="#fff" d="M843.27 192.57v85.83c0 21.87-17.73 39.59-39.59 39.59h-44.64c-22 0-39.84-17.83-39.84-39.84V179c0-26.51 22.5-34.5 48-48l.5 129.5h15.37c7.3-.01 13.21-5.93 13.21-13.22v-9.73c0-25.95 22.41-33.05 46.98-46.98v2Z"/>
  <path fill="url(#a)" d="M643.71 341.13c14.13-15.92 40.94-7.81 43.64 12.85 3.6 27.52-31.76 39.83-45.93 17.59-5.46-8.57-4.51-22.77 2.29-30.44"/>
  <path fill="url(#c)" d="M761.71 339.13c14.13-15.92 40.94-7.81 43.64 12.85 3.6 27.52-31.76 39.83-45.93 17.59-5.46-8.57-4.51-22.77 2.29-30.44"/>
  <path fill="url(#d)" d="M331.11 206.36h53.36v23.91c0 11.19-9.08 20.27-20.27 20.27h-54.19v-23.08c0-11.64 9.45-21.1 21.1-21.1"/>
  <path fill="#fff" d="M579.98 203.23v83.17c0 20.34-9.32 39.56-25.28 52.17-8.11 6.4-10.65 17.59-6.12 26.86L565.3 404c18.97-12.74 32.89-25.85 42.74-36.93a79.74 79.74 0 0 0 20.13-52.99s42.25 0 42.25 0c20.14 0 36.47-16.33 36.47-36.47v-74.38h-.85c-21.33 9.27-46.48 14.91-46.48 39.48v8c0 4.92-3.99 8.91-8.91 8.91h-21.02v-12.73c0-29.63-19.92-30.38-49.65-43.65Z"/>
  <path fill="#fff" d="M523.67 98v49.88c0 8.6-4.42 16.6-11.71 21.18l-36.98 25.13 54.52 15.87c21.94 6.39 37.03 26.5 37.03 49.35V280c0 33.88-27.46 61.34-61.34 61.34H301.31c-27.51 0-47.2-15.46-49.82-49.82-1.89-24.87 7.42-50.06 11.66-60.03.64-1.51 2.83-1.35 3.25.24l6.94 26.29c5.01 15.52 19.46 26.04 35.77 26.04h209.05v-3.18c0-6.96-4.5-13.12-11.12-15.25l-73.13-23.45a17.64 17.64 0 0 1-12.25-16.8v-42.71c0-12.6 6.55-24.3 17.29-30.88l84.69-53.8Z"/>
  <path fill="url(#e)" d="M265.4 158.44 0 310.56v-117.6c1.37-21.58 16.7-32.35 28.61-39.25L293.99 0v111.14c0 27.03-4.96 33.99-28.59 47.3"/>
  <path fill="url(#b)" d="m17.52 344.41 134.34 74.05-.02-63.9c-.5-11.92-8.34-20.2-14.61-23.74L0 251.51l.3 51.25c0 18.49-.06 32.36 17.22 41.65"/>
  <path fill="url(#f)" d="m151.86 418.46.16-113.98a39.44 39.44 0 0 1 19.72-34.1l50.71-29.27v119.32c0 11.17-6.01 21.47-15.72 26.97l-54.86 31.07Z"/>
  <ellipse cx="153.99" cy="471.68" fill="url(#g)" rx="33.36" ry="36.77"/>
  <path fill="url(#h)" d="M125.97 447.36c20.82-23.46 60.33-11.51 64.3 18.93 5.3 40.55-46.8 58.69-67.68 25.92-8.05-12.63-6.65-33.56 3.38-44.86Z"/>
</svg>
