<svg xmlns="http://www.w3.org/2000/svg" xmlns:xlink="http://www.w3.org/1999/xlink" preserveAspectRatio="none" version="1.1" viewBox="0 0 1440 560">
  <g fill="rgba(0, 0, 0, 0.08)" mask="url(&quot;#a&quot;)">
    <path d="M0 0h1440v560H0z"/>
    <path d="M0 616.162c114.012-7.059 209.507-79.067 302.896-144.847 89.835-63.277 188.096-126.495 227.796-228.956 38.931-100.475 14.466-213.086-16.535-316.284-27.821-92.61-97.138-160.473-150.843-240.888-62.716-93.907-90.659-219.914-191.217-271.295-104.52-53.406-240.416-55.998-344.981-2.68-101.183 51.594-120.663 184.474-189.185 275.053-62.528 82.655-184.067 130.557-195.573 233.558-11.517 103.094 101.58 174.601 139.176 271.284 40.917 105.225 11.258 238.819 90.465 319.273C-245.74 593.936-117.03 623.408 0 616.162m1440 441.347c106.657 16.544 222.729 48.256 317.215-3.913 95.58-52.773 139.254-165.546 175.943-268.378 34.433-96.51 41.91-198.627 26.84-299.982-15.016-100.986-36.044-210.751-112.792-278.082-74.579-65.428-189.349-37.294-283.237-69.354-99.988-34.143-179.977-139.966-284.498-124.513-104.906 15.51-185.946 109.109-237.627 201.709-47.244 84.65-13.308 188.087-32.907 283.026-21.399 103.66-123.694 199.302-87.17 298.647 36.161 98.357 164.922 120.326 258.528 167.44 83.873 42.215 166.917 79.007 259.705 93.4"/>
  </g>
  <defs>
    <mask id="a">
      <path fill="#fff" d="M0 0h1440v560H0z"/>
    </mask>
  </defs>
</svg>
